<?xml version="1.0" encoding="UTF-8"?>
<svg id="Layer_2" data-name="Layer 2" xmlns="http://www.w3.org/2000/svg" viewBox="0 0 604.45 608.68">
  <defs>
    <style>
      .cls-1 {
        fill: #a00000;
      }
    </style>
  </defs>
  <g id="Layer_1-2" data-name="Layer 1">
    <g>
      <path class="cls-1" d="M271.34,519.43c4.8,6.32,8.82,12.65,5.74,21.32-1.38,3.88-3.22,8.84,3.35,11.21v-12.74c1.56,7.21,3.34,14.12,9.72,19.64v-6.91c2.35,3.84,4.1,6.71,6.22,10.18,1.34-2.07,2.18-3.36,3.52-5.43,2.24,2.42,4.31,4.65,6.68,7.22,2.49-3.55,5.4-3.33,8.69-1.07,.83,.57,2.34,.1,3.54,.17,2.98,.18,5.97,.31,8.93,.67,.9,.11,1.8,1.43,2.57,1.32,7.63-1.1,15.22-2.4,22.84-3.59,1.43-.22,2.9-.17,4.35-.25,1.29-.07,2.9,.33,3.8-.3,3.09-2.15,5.66-5.21,10.17-3.78,.54,.17,1.59-1.41,2.45-2.12,.98-.8,1.94-2.03,3.05-2.2,5.99-.94,10.16-4.64,14.32-8.61,2.51-2.4,5.48-4.32,8.83-6.9,2.66,1.97,3.88-.51,5.32-3.4,.85-1.7,2.58-2.97,4.76-3.78,.51-1.85,1.02-3.7,1.63-5.93,2.12,.93,3.7,1.63,5.18,2.28,.21-.17,11.82-9.74,11.82-9.74-1.41-9.42,.8-10.82,10.8-7.88-1.22-2.47-2.79-5.62-4.36-8.77,3.32-.89,6.65-1.78,9.9-2.65-4.22-8.91-3.86-9.87,4.57-10.53-1.65-2.82-4.7-5.74-4.38-8.23,.26-1.97,4.66-3.4,7.26-5.09q-3.24-5.1,2.73-12.35c-1.34-1.53-2.72-3.1-4.35-4.97,7.21-5.11,8.12-12.99,10.45-20.52,1.24-4.02,5.66-7.13,8.86-10.45,3.55-3.68,7.39-7.06,11.01-10.68,2.35-2.35,4.26-5.25,6.9-7.15,1.08-.77,3.59,.45,5.81,.82-1.51-10.94,7.11-17.69,12.03-26.63-1.52-.55-2.99-1.09-4.78-1.74,1.52-3.01,3.04-6.01,4.78-9.46-2.34-.14-4.18-.25-6.3-.38,1.02-2.91,1.92-5.47,2.82-8.02-2.23-.7-4.45-1.4-6.91-2.18,.16-1.58,.41-4.03,.68-6.66-5.57,.77-10.72,4.55-10.39,7.79,.14,1.36,2.34,2.51,4,4.15-.42,.88-1.75,2.46-1.74,4.02,.01,1.29,1.62,2.56,2.79,4.21-.94,1.05-2,2.23-3.33,3.72,.92,.87,1.93,1.82,2.76,2.61-1.74,3.19-3.66,6.02-4.88,9.13-1.38,3.54-4.39,4.38-7.36,5.51l.08,.12c5.27-6.96,.83-14.72-6.55-17.13-11.4-3.72-21.88-1.29-31.28,5.23-8.52,5.91-16.44,12.7-24.41,19.37-1.43,1.2-2.47,3.69-2.49,5.59-.05,5.59,.56,11.17,.82,16.77,.37,8-1.79,15.5-5.19,22.6-.71,1.48-3.04,2.19-5.07,3.55,1.95-9.98-1.2-18.61-4.04-27.18-.29-.87-4.15-1.58-5.52-.84-2.82,1.53-5.03,4.17-7.59,6.23-3.88,3.12-8,5.96-11.65,9.32-1.06,.97-1.66,3.67-1.09,4.97,1.94,4.44,1.57,7.58-2.71,10.54-1.68,1.17-2.64,4.09-2.97,6.35-.73,5.03-.73,10.16-1.28,15.22-.16,1.46-1.13,2.83-1.53,3.76-.52-5.28-1.06-10.79-1.61-16.3-.45,0-.9,0-1.36,0-.22,.99-.45,1.97-.61,2.71-.59-1.61-1.27-3.47-2.43-6.64-4.68,3.46-9.38,6.11-12.99,9.82-4.04,4.14-8.36,5.98-13.97,5.3-4.42-.53-7.87,1.34-11.17,4.17-2.2,1.88-5.03,3.02-7.56,4.52-2.17,1.28-4.32,2.61-6.16,3.72,1.65-11.66,12.48-13.9,21.2-18.93-1.94,.42-3.89,.85-6.53,1.42,6.68-4.95,15.65-6.26,18.68-16.16-7.9,1.3-14.59,3.01-21.35,3.37-13.47,.71-27.01,1.22-40.48,.75-8.79-.31-17.52-2.53-26.28-3.85-3.67-.55-5.24,1.22-4.92,4.82,.81,9.36,1.43,18.74,2.12,28.12-.44,.04-.87,.08-1.31,.12-.43-9.37-.85-18.74-1.28-28.11-.44-.19-.87-.38-1.31-.58-.28,.78-.55,1.56-.82,2.33-.63-.6-1.04-.8-1.04-1.01,.07-7.87-7.26-7.51-11.64-9.98-13.79-7.78-28.13-14.6-41.8-22.59-8.11-4.74-15.73-10.54-22.85-16.7-6.85-5.93-12.31-13.48-19.2-19.34-9.9-8.41-13.97-20.36-20.44-30.84-3.28-5.32-4.48-5.54-8.12-.74-2.04,2.69-4.55,5.23-7.35,7.06-1.55,1.01-5,1.34-6.07,.34-1.42-1.33-2.08-4.35-1.78-6.46,.7-4.9,2.28-9.67,3.25-14.54,.17-.83-.9-1.9-1.4-2.86-.68,.6-1.36,1.2-2.22,1.97-.95-8.1-7.63-11.2-14.02-13.36-6.43-2.18-13.5-3.2-20.3-3.29-5.57-.08-11.29,1.55-16.72,3.18-4.02,1.21-7.48,1.32-11.23-.57-4.23-2.13-8.49-4.76-13.02-5.55-4.51-.79-9.37,.43-15.41,.87,2.62-2.42,4.52-5.44,7.17-6.37,5.97-2.1,12.26-3.38,18.5-4.57,3.99-.76,9.13-7.4,10.61-13.38,1.2-4.85,3.39-9.46,5.12-14.11,2.77,.85,4.48,1.38,6.36,1.96,.59,9.92,2.39,11.41,13.62,10.5,2.72-.22,6.3-.31,5.62-4.45-.71-4.3-1-9.7-3.71-12.29-2.09-2-7.63-.4-11.46-.4,1.71-2.47,3.76-5.65,6.04-8.66,2.22-2.94,5-3.23,6.72,.17,1.91,3.77,3.47,7.86,4.32,11.99,.92,4.48,.86,9.17,1.27,14.37-6.79,.99-13.95,2.14-21.15,2.95-.98,.11-2.15-1.53-3.54-2.59-3.29,6.32-6.55,12.6-9.81,18.88-.04-.02,.41,.24,.43,.21,7.53-11.11,18.63-5.1,28.31-5.92,10.48-.89,21.33,1.97,31.42-3.18,1-.51,2.98-.06,4.04,.64,5.13,3.4,7.77,2.76,9.96-4.1-2.1,1.05-4.2,2.11-6.94,3.48-.43-1.08-1.02-2.6-1.6-4.06,1.53-1.08,2.79-1.86,3.93-2.79,.99-.81,1.84-1.8,2.75-2.7h-4.61c-.36-2.21-.8-4.88-1.3-7.92-6.75,1.93-1.79,7.88-3.6,12.64-2.83-1.97-5.47-3.51-7.67-5.55-.58-.54-.27-2.96,.46-3.85,3.17-3.92,6.64-7.6,10.07-11.44-.33-.17-1.37-.69-2.61-1.31,.72-1.75,1.32-3.22,2.18-5.34-9.6,4.08-11.37,12.56-13.69,20.36-9.61,.47-10.88-1.37-10.62-10.36,.17-5.7-1.34-11.48-2.37-17.17-1.32-7.32-3.94-14.52-1.35-22.07h0c2.08,8.74,11.02,22.37,14.76,22.59-1.55,2.52-3.12,5.07-4.69,7.63,.78,.68,1.56,1.36,2.34,2.04,.3-1.07,.32-2.37,.97-3.15,1.48-1.76,3.2-4.52,4.95-4.62,6.28-.35,7.88-5.16,10.33-9.3,.56-.94,1.01-2.02,1.19-3.09,.36-2.11,.49-4.25,.73-6.54q-4.27-1.04-14.76,2.47c1.76-4.14,3.57-5.37,10.58-7.22,6.79-1.79,12.39-9.25,11.81-16.16-.06-.7-2.26-1.8-3.37-1.7-2.33,.21-4.6,1.1-6.9,1.72-.19-.45-.38-.91-.58-1.36,1.46-.85,2.93-1.67,4.37-2.55,8.33-5.11,16.85-9.92,24.92-15.41,19.88-13.53,41.11-21.65,65.66-18.04,1.97,.29,4.01,.16,5.98,.46,3.77,.57,7.52,1.32,11.29,1.99-.69-2.8,.54-5.77,4.45-6.62,1.93-.42,4.12,.31,6.19,.52,.02,.6,.03,1.21,.05,1.81-.89,.46-2,.74-2.61,1.44-.63,.72-1.36,2.17-1.04,2.78,3.09,5.99,10.28,6.72,15.5,1.71,.58-.55,1.16-1.27,1.87-1.49,5.24-1.62,10.51-3.13,16.41-3.76-5.21,3.26-10.42,6.52-15.73,9.85,3.01,2.05,3.26,8.8,10.7,6.5-.84,2.13-1.29,3.28-1.75,4.46,4.61-.35,9.13-.69,13.89-1.05-2,3.52-7.27,4.63-6.71,9.72,.03,.27-1.9,.65-2.82,1.14-1.77,.94-3.47,1.99-5.41,3.12,4.26,.41,7.55,.74,10.86,1,.44,.03,1-.23,1.35-.54,6.32-5.56,12.81-10.94,18.85-16.78,5.72-5.53,10.95-11.56,16.39-17.36,2.07,.75,3.75,1.36,6.14,2.23-3.48,4.19-6.81,8.2-10.55,12.7,1.46,.09,2.4,.14,3.21,.19-.64,3.81-1.26,7.51-1.94,11.55-4.56,2.92-9.85,6.51-15.35,9.75-2.25,1.33-4.96,2.69-7.45,2.67-11.71-.11-14.69,9.59-19.87,16.9-.82,1.16-1.82,2.32-2.99,3.09-4.39,2.92-8.11,6.12-9.32,11.75-.38,1.77-2.87,3.08-4.43,4.65-1.53-1.73-2.59-2.93-3.58-4.05-3.79,2.4-7.39,4.61-6.05,9.84,.07,.27-1.52,1.34-2.31,1.32-.69-.02-1.72-.93-1.97-1.66-.68-1.99-1.02-4.1-1.59-6.6-1.57,.73-2.73,1.27-3.54,1.65,.44-2.21,.88-4.4,1.34-6.66,1.23,.59,2.84,1.37,4.57,2.2,.2-.81,.31-1.03,.26-1.1-5.33-6.28-5.3-6.24,1.46-12.18,3.12-2.75,6.1-5.66,9.1-8.54,.32-.31,.39-.87-.14-2.23l-13.09,10.32c-.2-.14-.4-.28-.6-.41,.77-1.42,1.54-2.83,2.58-4.75-8.51-2.65-16.48-5.22-25.13-1.88-1.35,.52-3.27-.45-4.93-.73,.71-1.18,1.26-2.5,2.16-3.51,2.29-2.55,4.73-4.95,7.12-7.41,12.1-4.52,24.19-9.05,36.29-13.57-.08-.56-.17-1.12-.25-1.69-6.69,.75-13.38,1.49-21.18,2.37,3.07-1.59,5.26-2.66,7.4-3.84,2.03-1.12,5.36-1.23,4.44-5.66-3.08,1.48-5.69,2.73-8.31,3.98-.57-.72-1.13-1.43-1.7-2.15,2.3-.94,4.6-1.87,6.9-2.81-.6-.9-1.21-1.8-1.81-2.7-2.81,.9-5.62,1.81-9.32,3,1.49-1.92,2.34-3.01,3.48-4.47-3.7-.85-6.91-1.59-9.31-2.14-1.87-1.08-3.04-2.21-4.38-2.45-4.58-.82-9.22-1.36-13.84-1.92-1.16-.14-2.36,.02-3.54,.05,.41,1.14,.74,2.31,1.25,3.4,.35,.75,.95,1.39,1.44,2.08-.32,.28-.65,.56-.97,.84-.87-.94-1.58-2.14-2.64-2.76-2.43-1.43-5.13-3.83-7.55-3.63-10.48,.85-20.46,4-29.65,9.19-4.92,2.78-9.55,6.08-14.01,8.96,1.69,2.96,2.78,4.88,3.97,6.97-3.04-1.14-5.37-2.01-7.7-2.88-.39,2.1-.79,4.2-1.18,6.3l.13-.1q-6.1,4.41-9.81,2.26c1.19,2.16,3.07,3.74,4.54,5.64,1.48,1.9,2.55,4.11,3.8,6.19-2.11-.69-4.21-1.39-7.21-2.37-1.19,2.37-3.84,5.37-3.9,8.41-.06,2.92,2.57,5.89,4.44,9.68-2.68-1.83-4.55-3.1-6.79-4.64,.31,2.66,1.19,4.69,.53,5.55-1.97,2.58-.51,3.49,1.45,4.53,1.49,.8,2.94,1.65,4.41,2.47-.2,.5-.4,.99-.6,1.49-2.74-.66-5.47-1.32-7.74-1.87-.15,1.95-.29,3.87-.47,6.2,2.75,1.36,5.81,2.88,9.87,4.89-4.1,1.07-6.85,1.78-9.59,2.49-.09,.5-.19,1-.28,1.49,3.33,1.8,6.65,3.61,9.85,5.34-2.6,1.03-4.78,1.9-6.96,2.77,1.7,2.05,3.39,4.1,5.19,6.27-.59,1.39-1.4,3.28-2.2,5.17,3.93,1.66,6.4,4.49,7.2,8.74,.03,.16,.59,.23,.91,.33,6.08,1.88,17.76-3.56,20.7-10.03h-13.83c3.94-3.02,6.98-5.35,10.8-8.27-5.62-.46-9.74-.79-13.87-1.13l.03-1.12c2.7-1.35,5.4-2.7,8.1-4.06,.04-.56,.09-1.12,.13-1.69-3.69-1.57-7.37-3.15-11.58-4.95,4.17-.97,7.63-1.77,12.58-2.91-4.34-2.77-7.37-4.71-11.04-7.06,4.12-1.5,7.32-2.66,11.35-4.13-3-1.68-5.44-3.04-7.88-4.41,1.49-1.67,2.42-3.09,3.71-4.03,1.4-1.02,3.13-1.59,5.07-2.53-1.42-2.4-2.71-4.57-4.05-6.84q7.93-2.12,6.2-9.47c2.04-.44,4.07-.87,6.36-1.37-.25-3.89,.27-7.06,5.43-6.24,.82,.13,1.9-1.53,2.9-2.3,2.15-1.64,4.1-3.95,6.54-4.71,5.93-1.86,12.09-2.99,18.34-4.46-.07-.24,.22,.76,.41,1.41,4.15,.57,8.28-2.98,11.72,1.59,1.42-.93,2.84-1.86,4.87-3.2-.79,2.08-1.28,3.37-2.02,5.33,2.16-.57,3.66-.97,5.27-1.39,.07,1.64-.42,3.8,.29,4.31,5,3.61,.9,5.79-1.05,8.34-2.33,1.49-4.66,2.99-7.32,4.69-.3-1.63-.53-2.86-.95-5.18-2.58,.8-5.49,.99-7.43,2.46-3.7,2.81-6.37,7.19-10.31,9.42-12.06,6.83-17.87,17.83-21.03,30.39-1.39,5.52-.92,11.58-.8,17.38,.07,3.43,2.81,3.9,6.07,2.49-2.16,4.27-4.93,9.92-7.85,15.5-1.84,3.5-3.41,7.38-8.75,6.53-1.23-.19-2.68,1.03-4.62,3.07,2.33,1.33,4.96,4.09,6.91,3.67,3.02-.64,5.98-3.08,8.19-5.47,1.41-1.53,1.98-4.34,1.99-6.58,.04-9.64,6.1-15.35,13.05-20.8,2.28,2.03,2.5,4.07,.08,6.11-10.7,9.01-8.94,19.49,4.14,24.48,.44,.17,.94,.19,1.37,.94-1.78-.12-3.56-.24-5.35-.37,5.81,4.25,20.73,3.05,26.54-2.1,.41,.23,.81,.46,1.22,.7-1.02,1.51-1.72,3.85-3.11,4.38-3.31,1.25-6.92,1.79-10.46,2.36-3.65,.58-4.62,2.37-2.44,5.35,3.88,5.3,7.59,10.76,11.94,15.65,2.08,2.34,5.45,3.54,8.56,5.46-4.16-.46-8.3-.93-13.05-1.46,3.68,4.52,8.43,4.27,12.85,3.87,4.42-.41,8.75-1.76,13.5-2.08-1.89,1.34-3.65,3.52-5.71,3.87-5.39,.91-3.99,4.71-4.08,7.95-.11,3.8,2.69,3.39,5.21,3.62,4.39,.4,8.76,1.32,13.15,1.46,4.25,.14,8.53-.44,12.84-.14-5.47,1.08-10.95,2.16-16.42,3.23,.07,.54,.13,1.09,.2,1.63,5.88,4.01,11.49-1.46,18.27-1.44-.74,1.51-1.24,2.59-1.79,3.65-.76,1.47-2.54,3.35-2.13,4.3,.72,1.69,2.63,3.76,4.27,3.98,4.22,.56,8.55,.19,12.86,.19,.09,.73,.02,2.88,.45,2.98,1.68,.41,3.83,.78,5.23,.05,3.37-1.75,6.41-4.12,9.14-5.95,0,1.65-.85,4.53,.23,6.04,1.17,1.65,4.05,2.37,6.32,2.92,19.69,4.78,38.48,.18,55.29-9.12,15.26-8.44,28.89-19.94,42.81-30.65,12.86-9.89,26.03-19.02,41.53-24.34,7.89-2.71,15.67-5.76,22.15-8.16,4.64,1.16,8.33,2.49,12.14,2.96,15.16,1.87,29.55,5.57,42.26,14.67,11.76,8.42,22.31,17.76,28.25,31.31,2.3,5.24,4.36,10.58,6.53,15.88,.48,.08,.97,.16,1.45,.24,.25-1.71,.8-3.44,.7-5.13-.32-4.99,1.45-6.83,6.08-4.94,4.51,1.85,8.6,4.73,12.89,7.18-.35,2.85-.68,5.54-1.17,9.5,3.45-.76,6.03-1.3,8.58-1.92,1.72-.42,3.4-1.07,5.13-1.43,2.26-.46,4.75-.31,4.8-3.73,.05-2.85-.41-4.68-3.92-4.99-2.19-.19-4.27-1.67-6.4-2.58,.2-.69,.41-1.39,.61-2.08,2.96,.43,5.97,.64,8.87,1.34,3.59,.86,7.21,2.06,10.08-1.22,2.01-2.31,.79-9.03-2.25-11.22-2.45-1.76-5.4-3.29-8.33-3.81-7.82-1.39-11.97-6.27-11.66-14.02,.12-2.91-.47-6.09-4.61-6.33-.6-.04-1.24-.44-1.74-.83-4.59-3.57-9.28-7.04-13.7-10.81-4.62-3.94-5.59-8.26-3.02-13.73,1.53-3.25,1.08-4.9-2.24-6.68-2.67-1.43-5.2-3.85-6.73-6.46-1.03-1.75-.79-4.82,.05-6.8,.34-.8,4.15-1.01,5.75-.21,2.64,1.32,4.14,1.14,5.8-1.25,4.28-6.15,11.5-5.55,17.5-6.3,8.92-1.11,18.09-.67,27.13-.26,11.45,.52,17.01,8.73,16.26,20.19-.41,6.33,.17,12.49-4.03,17.94,.44,.18,.87,.35,1.31,.53,1.75-3.52,3.5-7.03,5.15-10.34,4.8,6.87,5.13,12.22,.79,19.29-2.08,3.38-2.06,6.49-.89,10.38,1.05,3.51,1.33,8.13-.11,11.34-3.76,8.4-5.26,17.14-5.79,26.09-.45,7.57-5.19,12.27-10.24,16.77-3.51,3.13-7.54,5.66-11.3,8.51-6.09,4.64-8.9,12.87-16.96,15.47-.8,.26-1.42,2.25-1.48,3.47-.45,9.29-.72,18.59-1.11,27.88-.13,3.04,1.29,4.17,4.21,4.11,4.48-.09,8.97-.02,13.45-.02-.02,.72-.03,1.45-.05,2.17h-18.23c-.1,.21-.21,.42-.31,.63,3.49,1.29,6.97,2.58,10.2,3.78-1.58,.11-3.53,.25-5.72,.4-1.96,4.89,3.12,5.84,4.54,9.01-1.36-.22-2.85-.46-4.34-.7-.15,.31-.3,.61-.46,.92,5.84,3.26,11.68,6.53,17.52,9.79-.17,.81-.35,1.63-.52,2.44-7.42-10.34-14.6-3.4-21.73-.78-.84,10.38-1.71,21.07-2.58,31.76-3.77-14.55-3.84-14.62-11.34-10.88,0-6.01,.11-12.28-.08-18.53-.04-1.35-1.05-3.74-1.79-3.81-3.9-.37-3.75-7.47-8.89-5.21-2.04,.9-3.97,2.06-6.1,3.18-.2-.63-.59-1.28-.44-1.46,9.21-10.68,8.2-23.09,5.95-35.63-1.86-10.37,2.02-18.69,9.2-25.58,2.05-1.97,5.74-3.53,8.44-3.22,4.54,.53,7.11-1.63,9.66-3.71-6.2,.78-12.65,1.41-19.03,2.5-2.49,.43-4.8,1.91-7.5,3.05-3.11-3.07-3.67-6.48-.03-9.55,2.46-2.07,5.5-3.45,8.34-5.05,1.4-.78,2.91-1.35,4.1-3.15-2.21-.66-4.41-1.32-6.62-1.98,.7,.66,1.39,1.33,2.09,1.99-2.17,1.01-4.63,1.65-6.45,3.1-7.07,5.64-7.65,8.74-3.36,16.45-12.02,9.63-4.55,21.95-4.39,32.64-2.05,.4-4.35,.23-5.84,1.26-3.77,2.59-7.24,5.65-10.69,8.69-.74,.65-.74,2.08-1.26,3.05-.68,1.24-1.3,2.72-2.37,3.51-4.39,3.22-6.39,13.45-3.29,17.78,4.25,5.94,4.91,12.32,.49,15.48-3.4,2.43-7.99,3.38-12.18,4.49-2.18,.58-4.64,.11-6.97,.12-5.61,.03-8,2.05-7.55,7.76,.38,4.77,2.15,9.41,2.88,14.17,.85,5.52,.83,11.19,1.97,16.64,.7,3.37,2.84,6.45,3.53,10.33-3.43-2.22-6.87-4.44-10.44-6.75-1.04,3.71-1.7,6.07-2.36,8.43-.74,.13-1.47,.25-2.21,.38-1.58-3.39-3.07-6.83-4.74-10.17-4.41-8.83-3.85-18.27-3.82-27.72,.03-9.88-.39-19.7,6.06-28.21,.7-.93,.2-2.77,.26-4.18-1.54,.1-3.34-.29-4.57,.37-5.28,2.83-7.86,7.82-8.23,13.44-.53,8.12-.34,16.3-.15,24.45,.07,3.03,.97,6.05,1.46,8.9-40.31,41.66-88.38,64.57-148.78,56.23v16.9c-.15,0-.3,0-.44,0-.62-5.94-1.24-11.87-1.86-17.81-.56,.03-1.11,.06-1.67,.1v3.52c-5.88-2.12-12.11-3.7-17.71-6.52-9.48-4.78-19.11-9.57-27.66-15.77-11.66-8.45-20.38-19.91-28.67-31.69-4.94-7.02-12.92-8.59-21.21-8.19-.98,.05-1.96,.2-3.76-.56,.84-.93,1.5-2.28,2.54-2.71,5.23-2.16,10.49-1.67,15.48,.78,2.89,1.42,5.29,1.69,8.39,.11,1.67-.85,4.37,.3,6.61,.55,.14,.62,.28,1.24,.42,1.86,.92-.96,1.83-1.92,2.75-2.88-2.82-2.5-5.65-5.01-7.95-7.05-3.89,1.58-3.13,7.08-8.47,5.2,4.71-1.38,4.78-3.79,2.7-7.03-5.75-8.93-14.4-12.32-24.5-13.06-1.82-.13-3.65-.2-5.48-.3h0c6.41,.34,14.12-1.46,18.92,1.48,7.26,4.45,14.93,7.1,22.63,10.07,1.07,.41,2.86,.66,3.49,.08,.88-.8,.99-2.45,1.43-3.74h-4.58c.98-1.54,2.04-3.22,3.03-4.77-1.88-1.13-3.56-2.14-5.24-3.15l.37-1.63h7.65c.39-6.51,.82-13.73,1.25-20.94,5.14,.38,6.33,1.54,7.11,7.34,.22,1.64-.04,3.36,.28,4.97,.41,2.03-.41,4.98,3.33,5,3.22,.02,5.83-1.04,6.4-4.29,.8-4.56,1.07-9.21,1.48-13.83,.23-2.55,.29-5.11,.43-7.66,.53-.07,1.06-.13,1.59-.2,1.29,4.72,2.91,9.39,3.8,14.18,1.28,6.87,1.87,13.86,3.11,20.74,.54,2.97,1.97,5.78,3,8.66-5.02,9.35,.14,18.14,1.36,27.2,3.47-5.42,4.47-11.63,1.63-16.88-1.91-3.52-2.43-6.85-3.07-10.42Zm-102.96-186.26c.67,1.32,1.13,2.82,2.08,3.89,.56,.63,2.17,1.13,2.81,.78,2.73-1.5,2.64-10.7,0-12.94-1.66,2.82-3.32,5.63-4.98,8.45,.39-5.96-.25-11.74-2.99-17.28-1.28,4.97-2.56,9.94-3.92,15.26,2.3,.62,4.65,1.24,7,1.85Zm55.14,83.49c3.07,2.49,6.14,4.98,9.55,7.76,1.71-2.04,3.17-3.76,3.85-4.57-2.87-.39-5.7-.63-8.46-1.2-1.75-.36-3.39-1.22-5.08-1.85,1.81-4.96,6.01-5.88,10.58-6.63,3.82-.62,5.96,.79,7.53,4.09,.37,.79,1.87,1.33,2.92,1.48,6.55,.91,12.24,6.71,19.58,3.41,.56-.25,2.06,.55,2.53,1.26,2.53,3.86,5.41,2.66,8.63,1.07,1.29-.64,3.02-.65,4.53-.54,2.04,.14,4.07,.56,6.06,1.05,6.59,1.61,12.82,2.15,19.79,.23,5.29-1.46,11.27-.7,16.23-4.26,.5,1.69,.93,3.16,1.13,3.84,2.91-1.45,5.42-3.47,8.15-3.85,2.86-.4,5.94,.78,9.57,1.38-1.31-1.93-2.57-3.77-3.34-4.91,3.77-1.02,7.56-1.95,11.3-3.07,3.91-1.18,7.11-5.67,12.67-1.72-4.75-8.89,5.8-7.76,7.24-12.18,2.04-.27,3.74-.87,4.94-1.99,1.84-1.74,3.35-5.49,4.98-5.48,5.83,.02,7.59-4.63,10.63-7.9,.21,.52,.41,1.04,.62,1.57,3.34-1.17,6.68-2.34,11.17-3.91-2.83-1.5-4.19-2.23-5.74-3.05,1.95-2.3,3.62-4.27,5.98-7.06,1.43,3.61,2.58,6.52,3.89,9.83,1.9-1.44,3.49-2.65,5.35-4.06-1.13-.93-1.6-1.37-2.13-1.74-4.3-3.02-4.3-4.56,.14-7.56,2.11-1.42,4.29-2.74,6.55-4.18,.89,2.04,1.78,4.07,2.86,6.56,1.55-1.46,2.58-2.43,3.66-3.44-1.16-1.79-2.1-3.26-3.86-5.98,7.29-2.9,13.99-5.64,20.75-8.19,2.25-.85,4.65-1.35,7.02-1.77,3.57-.63,7.19-1.05,11.59-1.67,2.64,3.08,5.99,1.61,9.06-1.65,4.01,4.17,10.91,6.15,15.04,4.35,.41,.88,.71,1.85,1.28,2.63,.82,1.13,2.35,3.16,2.69,2.99,1.54-.76,3.22-1.92,3.92-3.39,.38-.79-.84-2.76-1.82-3.69-2.54-2.4-5.36-4.52-8.4-7.04-.77,.68-2.06,1.82-3.52,3.11-2.44-1.96-4.69-3.77-7-5.62-1.18,1.62-2.12,2.91-3.47,4.75-2.26-2.41-4.23-4.51-6.59-7.02,3.1,.6,5.43,1.04,7.95,1.53-1.09-9.7-2.67-11.09-10.08-9.38,.2,1.25,.4,2.5,.6,3.76-4.45-6.42-9.84-7.33-16.32-3.99-.42,.22-.96,.28-1.44,.31-13.31,.89-25.57,5.75-36.32,12.88-15.07,10-29.32,21.31-43.37,32.74-22.63,18.41-47.9,28-77.4,26.92-14.47-.53-29.07,.46-43.03-4.01-7.25-2.33-14.2-5.88-20.85-9.64-3.52-1.99-5.26-2.36-5.6,1.75-.32,3.82,.89,7.77,1.46,11.66,.45,3.08,2.4,4.44,5.3,3.74,1.99-.48,3.79-1.71,5.68-2.61,3.38,7.34,3.49,7.52-3.35,11.72-4.26,2.61-6.73-1.08-9.41-3.01,.68-2.03,1.2-3.59,2.01-6-3.72,2.38-6.46,4.13-9.03,5.78,4.88,2.51,10.17,5.22,15.23,7.82,.84-.53,2.13-1.35,3.42-2.16Zm-93.68-102.15c-3.12,0-5.16-.56-6.34,.2-.77,.5-.5,2.94-.33,4.47,.32,2.79,.71,5.61,1.46,8.31,.62,2.22,1.79,4.29,3.11,7.32-1.68,3.57,2.21,11.84,6.65,12.75-.48,1.64-1.86,3.77-1.28,4.89,1.65,3.2,4.16,5.95,6.19,8.97,1.11,1.64,1.94,3.46,2.78,5,3.04,.18,6.49,.38,10.59,.61-2.82,2.55-4.88,4.42-6.94,6.29,.19,.46,.38,.92,.57,1.37h12.74c.08,.4,.16,.81,.23,1.21-2.28,1.22-4.56,2.45-7.89,4.23,4.14,2.21,9.81,.87,9.1,7.47,4.78-1.7,9.22-3.66,13.08,.57-1.31,1.2-2.48,2.27-3.66,3.34,.31,.47,.61,.93,.92,1.4,2.24-1,4.49-1.99,7.56-3.36-1.99-2.08-3.51-3.49-4.79-5.09-.64-.8-.83-1.95-1.22-2.94,1.15-.25,2.55-1.04,3.4-.65,3.83,1.77,6.07-.21,6.87-3.33,.89-3.47,5.33-7.48-.61-10.74-9.74-5.34-19.42-10.77-29.14-16.14-.4-.22-.95-.18-1.7-.3-.55,1.27-1.09,2.52-2.06,4.75-1.17-2.41-1.51-4.6-2.73-5.36-4.42-2.71-3.01-4.63-.13-5.93-1.49-4.15-1.98-8.53-4.35-11.32-2.73-3.22-7.12-5.05-11.5-7.96,3.25-.47,5.35-.77,8.18-1.18-1.75-2.87-3-4.91-3.86-6.32-2.96,1.04-5.31,1.86-7.65,2.68-.17-.3-.34-.6-.51-.9,.72-.97,1.45-1.95,3.22-4.33Zm435.85,28.56c.85,.13,1.71,.27,2.56,.4,2.04-3.94,4.67-7.71,5.97-11.88,1.4-4.5,2.81-5.66,7.37-3.86,1.44,.57,3.58,1.47,4.53,.87,8.82-5.6,14.5-17.97,3.43-25.12-4.84-3.12-10.13-5.41-15.39-3.25-5.19,2.13-9.69,5.98-8.84,12.96,.11,.94-.92,2.57-1.84,3-4.68,2.2-3.26,5.33-1.8,8.72,.88,2.05,1.55,4.23,2,6.42,.8,3.88,1.35,7.82,2,11.73Zm-311.25,205.65c1.94-3.05,4.15-6.61,6.46-10.11,.73-1.11,1.73-2.05,2.6-3.06,1.01,.98,2.06,1.93,3.03,2.95,.49,.53,.83,1.2,1.24,1.8l.96-.3-2.87-33.08c-.49-.26-.98-.51-1.47-.77-.54,1.35-1.08,2.7-1.99,4.98-1.03-2.99-1.45-4.2-1.86-5.38-3.68,.66-7.08,1.27-10.49,1.87-.22,.48-.43,.96-.65,1.43,2.73,2.69,5.51,5.33,8.16,8.11,.98,1.03,1.64,2.37,2.44,3.57-1.39,.09-2.78,.19-4.62,.32,.48,1.76,.97,3.48,1.42,5.21,.46,1.76,1.01,3.51,1.3,5.3,.96,5.86-.37,8.35-5.99,10.19-2.36,.77-5.01,.67-8.38,1.06,3.74,2.05,6.82,3.75,10.73,5.89Zm-56.08-162.78c.8,2.9,1.58,6.65,2.96,10.17,.39,1.01,2.75,2.15,3.8,1.84,4.52-1.31,6.29-5.32,5.02-10.28-1.04-4.04-7.76-10.47-10.4-9.32-4.12,1.79-6.11-1.12-8.69-2.9-1-.69-1.81-1.64-2.71-2.47l-1.61,.4c0,2.28-.22,4.59,.05,6.84,.52,4.38,.78,8.31-4.81,9.88-1.01,.28-1.39,2.77-2.23,4.6,6.84-3.22,12.51-5.88,18.63-8.76Zm67.38-152.96c-.01-.27-.03-.53-.04-.8-6.06-.59-12.12-1.18-18.94-1.84,1.72-2.39,2.48-3.44,3.77-5.24-12.44-.57-22.69,2.41-31.81,9.21,7.82-1.69,15.65-3.38,23.47-5.07,.14,.39,.28,.78,.42,1.17-3.36,2.2-6.73,4.41-10.84,7.09,12.11-1.61,23.03-3.07,33.95-4.52Zm-128.13,79.1c3.46,4.78,7.22,5.19,11.24,3.67,4.82-1.83,8.81-4.68,10.61-10.74-7.56,2.45-14.41,4.66-21.85,7.08Zm223.92,104.1c-.54,1-.79,1.27-.84,1.58-1.16,7.8-1.2,7.89-7.96,4.4-2.85-1.47-4.01,.07-4.91,2.24-.84,2.04-1.45,4.18-2.17,6.33q-9.37-4.1-10.6-1.36c2.15,.57,4.37,1,6.47,1.76,3.13,1.13,5.38,1.02,6.49-2.79,1.06-3.63,3.2-4.57,6.79-2.42,1.19,.71,4.23,.45,4.91-.47,2.46-3.35,4.98-5.81,9.72-5.01-2.54-1.37-5.08-2.74-7.9-4.26Zm-124.47,134.6c5.44,8.88,19.52,17.83,25.67,17.48-7.88-5.36-16.55-11.27-25.67-17.48ZM47.3,314.08c5.85-3.92,11.78-16.8,9.45-22.92-3.37,8.17-6.58,15.96-9.45,22.92Zm206.72,215.61c-1.25-8.68-7.52-15.04-13.63-13.43,5.85,2.16,11.08,4.47,8.33,11.9,1.73,.5,3.27,.94,5.3,1.53Zm126.59-123.44c-.15-.49-.3-.97-.45-1.46-2.23-.9-4.42-1.97-6.73-2.59-.64-.17-2.41,1.1-2.35,1.54,.53,4.01,1.35,7.98,2.08,11.96,1.98-3.75-2.2-10.99,7.46-9.45Zm4.49-1.09c1.85-1.93,4.08-4.26,6.51-6.79-1.54-.66-3.67-1.58-6.51-2.8v9.59Zm-44.15,52.03c.39,.96,.79,1.91,1.18,2.87,2.85-1.25,5.7-2.51,8.56-3.76l-.84-2.14c-2.97,1.01-5.93,2.03-8.9,3.04Zm-164.12-114.2c4.34-3.87,6.24-6.89,1.81-11.54-.61,3.86-1.11,7.1-1.81,11.54Zm138.83,95.31c-2.2-2.08-4.4-4.15-6.75-6.37-1.67,1.5-3.09,2.79-4.52,4.07,.16,.44,.33,.87,.49,1.31,4.38-4.14,7.17-.63,10.78,.99Zm-62.42-191.03c-.32-.77-.64-1.55-.96-2.32-2.78,1.3-5.56,2.61-8.34,3.91,.22,.49,.44,.99,.66,1.48,2.88-1.02,5.76-2.05,8.63-3.07Z"/>
      <path class="cls-1" d="M377.81,304.66c-1.01-.39-1.99-.93-3.04-1.13-10.04-1.96-10.43,.28-8.38,7.85,2.59,9.59-1.29,17.98-5.97,26.24,5.38-11.99,8.52-23.86-.62-36-.5,1.81-.48,3.67-1.27,4.11-1.08,.61-2.77,.15-4.64,.15,.96,2.14,1.81,4.01,2.65,5.88l.11-.12c-2.51-2.51-4.84-5.24-7.58-7.47-3.73-3.04-7.77-3.87-12.84-2.51-5.68,1.53-11.75,1.8-17.68,2.18-6.02,.39-7.83,2.62-5.39,8.21,4.43,10.14,2.55,20.51,1.92,30.95-.52,8.55-5.05,14.08-10.37,17.9,1.19-6.69,3.2-14.3,3.74-22.01,.57-8.11-2.26-11.37-11.27-14.84,2.44,3.48,4.1,5.85,6.57,9.36-4.23-3.58-7.36-6.31-10.58-8.92-2.06-1.67-4.16-1.79-6.16,.25-2.87,2.93-5.76,5.83-8.68,8.71-.57,.56-1.23,1.12-1.96,1.4-3.74,1.46-7.7,2.48-11.24,4.32-3.8,1.98-5.77-.85-7.76-2.6-1.88-1.65-2.77-4.4-4.23-6.59-1.7-2.56-3.54-5.03-5.32-7.53-.49,.19-.99,.38-1.48,.57,.72-1.59,1.44-3.18,2.34-5.17,1.74,2.03,2.86,3.87,4.45,5.11,6.81,5.31,14.27,4.81,20.05-1.71,8.36-9.44,16.4-19.17,24.03-29.43-2,1.79-4.19,3.42-5.98,5.41-6.47,7.16-12.77,14.48-19.19,21.68-5.84,6.55-13.78,6.07-16.57-1.04-.45-1.14,.1-2.67,.19-4.02,.56,.03,1.11,.06,1.67,.08,.06,.95,.12,1.9,.24,3.83,2.09-1.74,3.53-2.94,4.65-3.88-1.47-1.45-2.71-2.68-4.08-4.03-1.09,.53-2.67,1.3-4.6,2.24-.64-1.72-1.13-3.03-1.83-4.88-1.21,.91-2.29,1.72-2.63,1.97-1.32-2.02-2.72-4.18-4.55-6.99,2.25-2.75,4.76,1.15,7.27,1.5,.63-2.19,1.25-4.33,1.87-6.46,.53,.13,1.06,.26,1.58,.38v4.48c1.02-.44,1.95-.85,3.28-1.43,.23,1.62,.43,3.1,.7,5.01,2.19-2.47,4.1-4.61,6.32-7.11,3.33,4.89,2.85,8.94-1.39,13.48,4.93-2.57,7.26-7.84,6.06-11.34-.55-1.6-.65-3.35-.96-5.03,.45-.32,.9-.64,1.35-.96-2.05-.74-4.11-1.48-6.16-2.22-.3,.41-.6,.82-.9,1.23-.09-1.37-.18-2.73-.31-4.83-1.77,1.53-3.26,2.82-5.55,4.8v-10.12c-1.45,.71-3.04,1.49-4.79,2.34,.55-2.68,1.82-5.08,1.25-6.88-1.13-3.52-7.31-3.21-10.51-.1-3.51,3.41-7.36,6.48-11.07,9.69-.38,.33-.81,.86-1.21,.85-6.62-.14-13.29,.1-19.83-.72-4.02-.5-8.43-2-8.36-7.79,7.01,3.42,14.01,7.2,21.13-.26,4.77,3.69,9.04,2.16,13.06-1.72,1.55-1.5,3.25-2.84,4.94-4.18,6.39-5.06,11.02-3.97,14.4,3.38,7.65-1.23,15.44-1.98,22.96-3.82,7.49-1.83,14.47-5.82,22.58-4.86,.27-.43,.55-.85,.82-1.28-3.96-2.54-7.87-5.19-11.96-7.51-.58-.33-2.85,.78-3,1.5-.87,4.33-3.81,3.88-6.72,3.15-3.57,5.46-10.62,9.07-15.31,7.24-2.11-.82-3.52-3.43-4.68-4.63,5.62-3.47,10.33-5.96,14.58-9.08,8.17-6,16.08-12.35,24.31-18.72-1.06,2.85-2.11,5.67-3.38,9.09,11.52-5.98,22.28-11.4,32.89-17.12,8.74-4.71,18.17-8.46,24.79-16.41,1.77-2.12,3.69-4.11,6.25-6.93,.38,2.54,.6,4,.95,6.31,6.01-2.79,11.84-5.06,17.25-8.09,14.95-8.38,29.89-9.54,45.21-1.15,4.53,2.48,9.14,4.8,13.78,7.06,7.59,3.7,15.34,4.07,23.24,.87,2.13-.86,4.39-1.4,6.77-1.82-2.54,1.66-6.65,1.94-5.26,6.82,3.44,.52,6.98,1.06,9.5,1.44-4.07,1.9-8.87,4.13-13.68,6.37,.22,.54,.44,1.07,.66,1.61,3.47-1.3,6.86-2.93,10.43-3.81,3.24-.79,6.67-.76,9.95-.13-10.54,2.55-21.08,5.1-32.13,7.77,.21,1.07,.54,2.76,.95,4.82-2.41-1.39-4.58-2.64-7.58-4.36,5.97,12.83,23,12.64,36.23,.7,.39,.31,.78,.62,1.17,.93-1.98,2.27-3.53,5.52-6.02,6.61-4.7,2.06-9.96,2.82-14.96,4.23-1.31,.37-3.2,.88-3.55,1.81-.4,1.05,.22,3.18,1.13,3.91,7.64,6.09,16.28,9.67,26.19,7.91,8.39-1.49,15.25-9.74,15.91-18.31,.07-.91-.66-1.91-1.12-2.81-.79-1.53-1.66-3.02-2.61-4.74,2.09-.9,3.58-1.54,4.99-2.15-1.47-8.98,3.2-11.05,9.27-13.46,2.47-.98,4.58-2.87,6.81-4.31-2.05-3.18-4.36-5.63-5.36-8.53-2.35-6.81,1.53-12.24,8.69-13.08,10.39-1.22,18.45,3.05,24.98,10.66,.94,1.1,.87,3.05,.71,4.94-4.7-8.13-11.94-12.09-20.61-13.51-2.6-.42-5.76,.08-8.12,1.26-5.42,2.7-5.5,9.66-.32,13.01,2.15,1.39,4.66,2.21,8,3.74-2.36,1.15-3.93,1.78-5.37,2.65-1.51,.92-2.88,2.06-5.15,3.72,3.8,1.32,6.67,2.32,9.9,3.45,.51-1.19,.99-2.29,1.47-3.4,.43,.13,.88,.12,1.01,.33,1.49,2.21,2.71,4.65,4.44,6.66,2.87,3.34,2.33,5.52-2.27,7.6-2.2-1.71,4.53-6.2-1.11-6.6-1.13,2.57-1.94,4.81-3.2,6.76-.16,.24-2.72-1.07-4.17-1.66,.87-2.05,1.75-4.09,2.71-6.35-2.92-1.09-6.38-2.1-9.57-3.65-3.81-1.84-6.88-1.06-9.3,2.04-2.68,3.42-.74,6.2,1.77,8.74,.66,.67,1.24,1.42,2.06,2.37-1.35,1.1-2.46,2-3.93,3.19,4.45,2.76,3.29,6.29,1.94,10.26-4.84,14.17-16.03,20.61-29.31,24.61-2.22,.67-4.51,1.06-8,1.87,2.02,.63,2.94,.91,4.12,1.28-.33,.22-.53,.45-.76,.5-1.92,.38-3.89,.59-5.78,1.09-9.94,2.63-19.55-.92-29.33-1.4-1.57-.08-3.18,.7-4.76,1.09,.7,1.7,.9,4.14,2.17,4.98,5.59,3.74,11.48,7.02,17.06,11.05-6.15-2.75-12.29-5.49-19.33-8.64,1.05,1.56,1.67,2.47,2.11,3.13-4.35-.9-8.83-1.83-13.19-2.73-2.98,6.55,4.37,5.57,5.08,9.44-2.81,0-6.06,.9-8.41-.16-8.42-3.83-15.61,1.22-23.27,2.63-.26,.05-.46,3.22,.18,4.5,.5,1,2.35,1.32,3.37,2.55-8.04-1.43-16.08-2.86-24.12-4.28-.1,.21-.21,.43-.31,.64l6.81,5.09v-.02Zm-31.29-42.76c-.19-.69-.37-1.39-.56-2.08,.77-.51,1.49-1.37,2.31-1.48,5.34-.7,10.7-1.27,16.05-1.82,1.94-.2,4.1,.27,5.83-.4,12.71-4.95,25.34-10.09,37.97-15.21,1.7-.69,3.3-1.62,4.95-2.44-.13-.37-.26-.73-.39-1.1-8.18-.93-16.36-1.86-24.54-2.79-.04,.26-.09,.53-.13,.79,2.7,.9,5.41,1.79,8.99,2.98-4.81,2.59-8.5,5.19-12.59,6.65-8.49,3.03-14.87,12.61-25.72,8.46-.38-.15-.95,.13-1.42,.25-6.62,1.75-13.2,3.67-19.87,5.21-5.1,1.18-10.58,.57-14.98,4.53-3.35,3.02-7.28,5.39-11.01,8.09,7.01,.98,12.12-3.29,17.8-7.04-1.85,3.51-4.21,6.44-6.9,9-1.78,1.7-4.27,2.65-6.06,4.34-2.84,2.67-3.04,7.58-.55,9.97,3.13,3.01,5.81,.93,8.34-1.08,1.16-.92,2.05-2.19,3.19-3.14,3.45-2.88,6.58-6.57,10.55-8.32,6.34-2.78,13.3-4.16,19.94-6.31,4.79-1.56,8.12-4.66,10.06-10.91-7.77,1.4-14.52,2.62-21.26,3.84Zm11.85-42.89c.23,.56,.47,1.13,.7,1.69,5.5-1.85,11.51-2.83,16.4-5.71,13.68-8.05,27.14-9.15,41.16-1.29,2.71,1.52,5.68,2.56,8.53,3.82-1.6-2.52-3.4-4.77-5.73-5.67-12.06-4.68-24.24-8.5-37.24-3.09-7.2,3-14.57,5.58-21.83,8.43-.78,.31-1.33,1.19-1.99,1.81Zm81.52,25.04c-.37,.45-.75,.91-1.12,1.36,6.22,4.89,12.11,10.3,18.74,14.54,10.89,6.96,27.58,4.41,36.27-4.95,3.7-3.98,6.05-8.69,6.52-14.16-.82,.65-1.2,1.49-1.45,2.37-3.3,11.59-12.36,18.6-24.45,17.73-11.37-.82-21.65-4.96-30.14-12.9-1.44-1.35-2.91-2.65-4.37-3.98Zm-150.29,69.15c7.84-5,14.99-9.4,21.92-14.11,1.12-.76,1.31-2.9,1.93-4.4-1.5-.33-3.11-1.21-4.46-.9-4.86,1.11-17.11,13.19-19.39,19.41Zm16.43,5.58c-2.43,4.47,1.56,13.11,5.42,13.2,.82,.02,2.14-.67,2.37-1.33,.38-1.08,.56-2.81-.05-3.56-2.27-2.8-4.89-5.31-7.74-8.3Zm6.43-62.61c-1.39-1.95-2.36-3.3-3.33-4.65-1.56,1.28-3.12,2.55-4.68,3.83,1.32,1.23,2.47,2.92,4.03,3.49,.78,.28,2.31-1.49,3.97-2.67Zm-6.34,9.21c.19,.58,.38,1.16,.58,1.75,2.39-.87,5.19-1.23,7.08-2.74,3.13-2.5,3.87-6.22,2.7-9.74-1.18,6.02-3.48,10.65-10.35,10.72Zm-50.61,61.08c-.71,.37-1.42,.75-2.13,1.12,1.52,2.58,3.03,5.17,4.55,7.75,.62-.34,1.24-.69,1.85-1.03-1.42-2.61-2.85-5.23-4.27-7.84Zm133.37-40.58c.12-.58,.23-1.17,.35-1.75-3.06-.74-6.12-1.48-9.18-2.22-.13,.55-.27,1.1-.4,1.65,3.08,.77,6.15,1.55,9.23,2.32Z"/>
      <path class="cls-1" d="M87.13,248.52c-5.98,.44-11.96,.87-18.31,1.33,2.56-2.26,5.05-5.15,8.15-7.07,9.02-5.58,15.35-13.7,21.58-21.92,3.26-4.3,2.54-9.17,.55-13.77-1.79-4.11-4.14-7.97-5.98-12.06-3.07-6.82-2.14-13.24,2.21-19.31,5-6.98,10.8-12.92,18.9-16.34,10.25-4.33,17.61-11.2,19.21-22.83,.15-1.1,.72-2.65,.22-3.25-3.18-3.76-.72-6.49,1.44-9.26,2.66-3.41,5.5-6.69,8.13-10.13,2.69-3.52,4.58-7.22,3.42-12.01-.43-1.76,.43-3.86,.8-5.78,.34-1.78,1.58-3.83,1.06-5.27-2.49-7.02,2.5-8.49,7.16-9.66,3.22-.81,4.48-2.56,4.82-5.43,.34-2.8,.77-5.63,.71-8.44-.16-7.27,.77-14.2,4.28-20.76,2.97-5.55,2.94-11.46-.11-17.57,6.32,1.94,8.42,4.46,7.68,10.24-.67,5.24-2.21,10.38-3.51,15.53-.81,3.2-2.58,6.54,1.02,9.04,2.57,1.78,9.24-.06,11.01-3.68,5.48-11.22,16.77-18.66,20.03-31.36,.55-2.14,3.3-4.42,5.55-5.31,11.09-4.37,20.6-10.4,26.16-23.42,.65,3.08,1.06,4.68,1.32,6.29,.37,2.27,.49,4.59,.97,6.84,1.28,6.02-.46,9.23-6.55,10.71-3.98,.96-6.11,2.21-3.88,6.77,.77,1.57,.12,3.84,.12,6.64,2.18-.91,3.91-1.67,5.67-2.35,8.67-3.36,17.17-7.27,26.07-9.86,6.38-1.86,13.36-2.05,18.56,3.67,1,1.1,1.08,3.03,1.58,4.57-2.26,.53-5.09,2.2-6.69,1.4-6.76-3.37-10.18-2.97-15.61,2.34-3.06,2.99-7.18,4.98-9.9,8.2-5.46,6.45-10.53,13.28-15.23,20.31-1.31,1.96-.34,5.29-1.15,7.75-1.98,6.03-6.15,10.2-12.16,12.39-4.69,1.71-9.54,3.06-14.05,5.15-1.71,.79-3.9,3.34-3.74,4.87,1.01,9.6-4.42,14.41-12.17,17.83-3.32,1.47-4.99,10.05-2.14,12.27,.94,.74,3.47,.6,4.54-.17,6.91-4.96,16.93-2.78,20.58,4.72,4.67,9.6,15.25,13.08,23.71,6.03,9.89-8.24,18.51-5.54,27.22,.4,6.02,4.11,11.94,5.94,19.22,4.65,2.56-.46,5.89,.81,8.24,2.29,4.64,2.91,8.79,6.59,13.25,9.8,5.88,4.22,9.95,3.22,13.28-3.22,1.43-2.76,2.57-5.66,4.95-8.24-.62,1.94-1.33,3.87-1.82,5.84-.39,1.6-.51,3.26-.74,4.9,1.88-.19,3.92,0,5.59-.69,1.61-.66,2.84-2.22,4.38-3.51,3.19,6.7,7.91-1.7,12.28,1.4-1.71,.95-3,2.13-4.46,2.4-6.3,1.17-12.68,1.92-18.96,3.18-1.42,.28-2.57,1.97-3.84,3.01,1.58,1.06,3.45,3.28,4.68,2.97,6.39-1.62,12.6-3.89,18.89-5.9,.69-.22,1.45-.24,2.43,.17-3.39,2.93-5.66,7.19-11.09,7.19-2.38,0-4.74,1.45-7.14,1.54-2.66,.1-5.82,.19-7.93-1.09-6.56-3.98-12.75-8.57-19.04-12.98-5.79-4.06-11.99-6.42-19.2-4.94-.32,.07-.68,.17-.99,.1-7.11-1.53-14.32-2.72-21.29-4.75-4.3-1.25-7.71-1.83-11.9,.9-10.59,6.89-28.4,.6-32.32-11.45-1.44-4.42-4.12-5.39-7.7-5.09-3.06,.26-6.05,1.46-9.06,2.32-.95,.27-1.97,1.27-2.74,1.08-7.11-1.82-8.31,3.81-10.9,8.11-6.26,10.42-14.22,18.48-27.07,20.86-6.32,1.17-12.1,4.56-15.18,10.97-.4,.83-1.22,1.46-2.73,1.86,.39-1.93,.78-3.86,1.18-5.79-.22-.12-.44-.25-.66-.37-1.26,3.13-2.52,6.27-3.78,9.4q-5.65-2.14,1.8-11.26c-4.4,1.57-9.09,3.24-13.24,4.72,5.61,1.86,3.58,4.42,.04,8.67-3,3.6-4.32,7.51-10.45,6.46-4.08-.7-6.35,4.75-4.39,9.44,.63,1.52,1.54,2.94,2.42,4.33,.77,1.21,1.69,2.33,2.88,3.93-7.22-2.55-10.8-11.72-7.58-20.55-3.34,4.25-5.46,7.61-2.96,11.6,2.75,4.4,6.15,8.39,9.04,12.71,.81,1.2,1.37,3.04,1.11,4.4-1.22,6.22-2.35,12.57-8.13,16.64,6.59-3.23,8.98-9.17,10.43-15.75,.78-3.51,1.63-7.05,7.24-5.44-2.4,8.83-4.18,17.85-11.45,24.44-5.67,5.14-11.41,10.19-16.98,15.44-1.32,1.25-4.56,2.69-.89,5.04,0,0,.01,0,.01,0ZM202.36,83.25c4.33-.69,9.26-1.15,14.01-2.34,4.44-1.12,7.64-6.1,7.63-10.65,0-4.86-2.98-7.67-8.33-7.88-6.8-.27-9.57,1.92-10.25,7.16-.55,4.29-1.86,8.48-3.06,13.71Zm-17.83,6.22c5.11-5.3,9.53-9.88,13.94-14.47-.37-.33-.74-.66-1.11-.99-2.8,6.03-11.01,7.25-12.84,15.45Zm-15.9-22.44c5.38,2.72,9.46,1.65,12.09-2.54-3.71,.78-7.74,1.63-12.09,2.54Zm87.08,74.15c.42-.82,.85-1.64,1.27-2.46-3.64-1.82-7.29-3.63-10.93-5.45-.25,.45-.51,.9-.76,1.34,3.47,2.19,6.95,4.38,10.42,6.57Zm-156.93,33.08c.43,.33,.87,.66,1.3,.99,3.19-2.99,6.39-5.97,9.58-8.96-.45-.45-.91-.91-1.36-1.36-3.17,3.11-6.35,6.22-9.52,9.33Zm42.77-20.64c.18,.4,.36,.79,.54,1.19,4.1-1.8,8.2-3.6,12.3-5.4-.28-.6-.56-1.2-.85-1.8-4,2.01-8,4.01-12,6.02Z"/>
      <path class="cls-1" d="M486.6,167.43c-3.07-2.87-6.23-5.65-9.19-8.63-5.36-5.39-10.76-10.75-15.85-16.39-5.68-6.29-10.77-13.11-16.58-19.27-5.94-6.3-14-8.69-22.22-10.61-3.93-.92-7.72-2.38-11.41-4.07,11.72-1.36,31.72,7.62,40.73,18.04,4.98,5.77,9.25,12.15,14.29,17.86,4.03,4.56,8.85,8.43,13.13,12.78,3.98,4.05,7.71,8.34,11.55,12.52-.39,.54-.77,1.07-1.16,1.61-2.34-.46-4.78-.66-7.01-1.42-9.96-3.42-19.8-7.25-29.85-10.36-2.39-.74-5.88,.05-8.04,1.43-1.01,.64-.8,4.75,.16,6.63,4.21,8.32,8.89,16.41,13.52,24.78-11.27,2.35-20.62-2.37-28.11-12.07,6.71,13.39,11.97,16.79,31.41,14.05-2.34,3.75-6.1,3.35-9.33,3.45-10.58,.34-20.66-2.28-29.2-8.32-10.71-7.57-20.45-2.81-30.39,.96-1.38,.53-2.06,2.9-3.83,5.58,3.04,0,4.66,.24,6.17-.04,11.46-2.09,21.63,2.09,31.71,6.52,7.64,3.36,15.19,6.93,22.68,11.01-5.03-1.75-10.13-3.32-15.09-5.27-7.88-3.11-15.45-7.19-23.55-9.46-5.39-1.51-11.66-1.53-17.19-.46-6.04,1.16-11.89,2.19-17.69,.22-9.96-3.38-18.38-.44-26.04,5.69-5.81,4.66-11.28,9.74-16.91,14.63,.48,.56,.96,1.12,1.44,1.69,2.1-1.69,4.23-3.34,6.29-5.09,4.82-4.09,9.64-8.19,14.4-12.36,7.78-6.82,16.17-4.7,24.88-1.04-2.8,.7-5.58,1.53-8.41,2.09-10.72,2.11-20.87,5.13-29.12,13.05-6.66,6.39-9.49,6.1-17.69,.05,1.52-3.81,3.59-3.98,6.32-.46,1.78-2.04,3.19-3.88,4.81-5.49,5.07-5.01,9.88-10.37,15.42-14.79,5.56-4.43,12.28-6.7,19.6-6.29,6.1,.34,10.87-2.07,15.13-6.32,9.59-9.57,16.52-10.26,27.97-3.19,5.66,3.5,11.31,7.02,17.03,10.42,1.48,.88,3.21,1.34,4.14,1.72-4.23-5.94-8.59-12.05-12.94-18.16-.18,.08-.35,.16-.53,.24,1.12,2.72,2.24,5.43,3.64,8.84-4.28-3.2-7.7-5.87-11.23-8.39-7.76-5.55-17.32-5.2-24.67,1.26-6.33,5.57-13.35,8.61-21.81,10.01-6.69,1.11-13.57,3.97-19.24,7.73-9.54,6.33-18.09,14.14-27.3,21-3.26,2.43-7.24,3.89-11.38,5.25,.8-.87,1.46-2,2.44-2.58,13.32-7.84,22.21-20.11,30.8-32.25,7.75-10.96,17.47-16.31,30.53-16.85,5.06-.21,10.09-1.09,15.47-.55-8.98,4.02-17.96,8.03-26.94,12.05l.38,1.46c5.34-.62,10.91-.15,15.77-3.32,4.59-2.99,8.72-6.75,13.47-9.43,3.82-2.16,8.16-4,12.45-4.5,3.05-.36,6.68,1.23,9.53,2.85,7.03,4,13.75,8.53,21.19,12.22-2-1.64-3.94-3.38-6.03-4.9-2.26-1.64-4.65-3.1-7-4.62-2.3-1.49-4.62-2.95-6.62-5.2,.97,.22,2.07,.2,2.88,.68,5.28,3.13,10.59,6.21,15.67,9.65,1.96,1.33,3.33,3.52,4.95,5.34,4.3,4.86,9.36,8.52,16.35,9.61-2.38-3.06-4.85-6.06-7.14-9.19-6.11-8.37-9.87-17.28-6.83-27.96,1.21-4.24-5.62-14.66-9.89-15.31-1.15-.17-2.46,.74-3.66,1.14-.28-2.84-.55-5.45-.85-8.46,1,.2,2.12,.43,4.69,.94-4.26-4.99-7.68-9.01-11.1-13.02,.2-.46,.4-.92,.6-1.37,2.15,.18,4.69-.31,6.37,.68,5.23,3.08,10.57,6.24,15.04,10.27,3.9,3.51,7.16,7.97,9.88,12.5,7.9,13.14,20.73,20.25,32.94,28.18,.4-.41,.8-.81,1.2-1.22Zm-40.55-14.24c7.18,3.26,15.83,7.18,24.47,11.1,.22-.44,.45-.88,.67-1.32-2.81-1.67-5.95-2.98-8.37-5.09-4.42-3.86-8.85-7.85-12.49-12.41-4.31-5.41-7.72-11.53-11.67-17.24-.94-1.35-2.47-2.29-3.73-3.42-.18,.18-.36,.37-.54,.55,4.44,6.58,8.87,13.15,13.31,19.73-.26,.18-.53,.35-.79,.53-2.06-2.58-4.12-5.16-6.18-7.73l-.43,.38c1.74,4.52,3.48,9.04,5.76,14.94Zm-35.28,29.59c-7.3-5.09-15.8-3.34-17.99,3.54,5.87-1.16,11.76-2.32,17.99-3.54Z"/>
      <path class="cls-1" d="M191.94,507.22c-2.28-3.76-5.35-6.51-9.76-7.5-2.8-4.42-5.6-8.85-8.4-13.27,.4-.3,.8-.6,1.19-.91l6.37,8.01c-6.41-18.31-19.84-30.22-35.54-40.08-.65,.63-1.3,1.26-1.95,1.88,3.46,2.25,6.91,4.5,10.37,6.75-.43,.44-.86,.87-1.29,1.31-1.19-.36-2.38-.71-5.32-1.6,1.59,4.23,2.7,7.16,4.02,10.65-.19,.21-1.14,1.29-2.1,2.36-5.58-7.12-6.86-16.01-9.62-24.23-1.02-3.04,0-6.92,.6-10.32,1.7-9.6,.24-18.41-5.85-26.3,3.51,10.02,7.41,19.98,1.14,31.25-7.1-5.93-13.76-11.49-20.42-17.06,.12-.25,.23-.5,.35-.75,2.58,1.52,5.32,2.84,7.7,4.63,2.92,2.19,5.47,4.86,8.3,7.18,3.06,2.5,5.1,1.71,5.92-2.14,2.04-9.46-4.33-21.7-13.2-25.57-5.77-2.52-11.61-4.92-17.18-7.84-4.85-2.54-9.69-1.42-14.39-.48-5.68,1.14-10.13,.07-13.28-4.85-3.81-5.96-8.83-8.35-16.05-7.12-4.54,.77-9.32,.14-14.2-1,.85-.64,2.01-1.12,2.47-1.97,.73-1.33,1.8-3.29,1.32-4.33-1.8-3.92-10.67-4.91-12.37-1.1-3.49,7.85-10.7,9.34-17.44,11.34-7.3,2.16-14.92,3.25-23.33,5,2.17-4.75,6.57-6.14,9.81-8.87,3.04-2.57,5.07-6.33,7.36-10.25-4.02,2.69-8.05,5.38-12.07,8.07-.18-.2-.36-.4-.55-.59,2.07-1.83,4.17-3.63,6.21-5.49,1.82-1.66,2.28-3.2,.43-5.47-1.96-2.41-3.58-5.23-4.75-8.11-1.29-3.19-1.68-6.52,3.21-7.32,.5-.08,1.23-.71,1.3-1.17,1.03-6.51,4.26-2.62,6.05-2.12,0,5.22-1.64,10.83,.44,14.06,2.25,3.51,7.93,5.04,13.05,2.51-2.35,.99-4.69,1.99-7.04,2.98,.08,.32,.16,.64,.24,.97,2.63-.77,5.43-1.19,7.87-2.36,6.44-3.09,12.64-6.7,19.13-9.68,2.05-.94,4.72-.57,7.1-.75,.48-.04,1.16,.43,1.44,.24,6.41-4.57,8.88,2.25,13.16,4.8,1.04-1.39,1.98-2.65,3.02-4.04,4.63,1.93,8.35,4.38,10.53,9.21,1.52,3.38,3.9,6.54,8.51,6.64,1.09,.02,2.88,1.18,3.12,2.12,2.44,9.74,11.38,11.78,18.65,15.09,9.92,4.52,19.57,9,26.35,17.95,.36,.47,1.26,.51,1.84,.86,1.16,.7,2.92,1.22,3.32,2.25,2.69,6.92,3.3,13.95-.22,20.83-3.65,7.13-3.64,7.91,3.84,12.91,16.16,10.79,27.98,24.79,35.98,42.38,1.33,2.91,4.55,4.96,6.95,7.48-.33,.42-1.34,1.69-2.35,2.97,0,0,0,0,0,0Zm-94.61-121.62c-3.64-.44-7.08,.1-9.07-1.35-2.28-1.66-3.1-5.21-4.88-7.71-1.79-2.52-3.61-5.53-6.78-4.45,2.7,3.78,5.38,7.41,7.92,11.13,3.4,4.98,6.72,5.81,12.81,2.38Z"/>
      <path class="cls-1" d="M396.43,123.62c-1.38,.14-2.39,.25-4.29,.45,2.48,2.35,4.18,4.45,6.35,5.8,1.16,.72,3.13,.13,4.73,.13-.24-1.54-.03-3.37-.82-4.54-1.3-1.96-3.23-3.49-4.9-5.2,.37-.42,.74-.84,1.1-1.26,2.78,2.41,5.55,4.83,8.91,7.75,.99-2.79,3.04-5.9,2.28-6.92-2.49-3.35-6-5.95-9.11-8.83-.49,.48-.99,.95-1.48,1.43,1.75,1.85,3.51,3.69,5.26,5.54l-.7,.87c-3.26-2.51-6.6-4.93-9.7-7.62-.6-.52-.61-2.24-.25-3.15,.24-.6,1.61-.9,2.52-1.03,.79-.11,1.75,0,2.44,.37,6.68,3.57,13.31,7.21,20.44,11.1-1.22,.94-2.11,1.62-2.92,2.25,3.22,5.09,6.39,10.12,9.8,15.51-4.44,1.09-4.45-5.26-8.65-2.94-.36,.2-3.09-3.87-4.72-5.95-.67,.41-1.34,.82-2.01,1.22,1.93,5.36,3.85,10.72,5.78,16.08-.62,.34-1.24,.68-1.86,1.02-3.06-4.14-6.13-8.29-9.79-13.25-.51,2.11-.74,3.07-.92,3.83-10.83-3.7-14.81-14.59-22.67-21.44-4.27-3.72-8.97-6.95-13.48-10.4-.48,.59-.97,1.18-1.45,1.76,2.36,1.93,4.78,3.81,7.08,5.82,3.1,2.69,6.12,5.47,9.15,8.24,.36,.33,.86,.81,.85,1.2-.29,8.04,6.1,10.31,11.36,13.98,2.88,2.01,4.48,5.84,6.76,9-4.8,2.01-6.7,1.29-10.13-3.35,.84-.63,1.69-1.25,3.25-2.41-1.79-.63-3.2-1.66-3.99-1.31-2.98,1.33-4.14-.29-5.38-2.5-1.63-2.88-3.6-5.57-5.21-8.46-3.62-6.5-4.96-6.79-11.05-1.82,.94,.85,1.84,1.67,2.89,2.61-5.52,.98-10.72,1.9-15.91,2.82-.18-.37-.36-.73-.54-1.1,2.49-3.15,4.97-6.3,7.62-9.65,.46,.65,1.24,1.75,2.02,2.84,6.05-4.17,6.14-4.36,2.73-10.14-1.17-1.98-2.46-3.96-4.05-5.62-2.27-2.38-4.8-3.83-8.42-2.07-3.64,1.76-6.82,.7-8.83-3.03-2.1-3.89-1.86-10.21,.81-12.18,3.46-2.55,6.65-1.16,9.36,1.5,1.76,1.73,3.11,3.91,4.94,5.55,4.73,4.25,10.3,6.29,16.73,6.79,9.86,.76,11.47,2.71,13.76,12.3,.67,2.79,2.64,5.27,4.31,8.44Zm-21.29-18.59c-.3,.34-.59,.69-.89,1.03,4.34,3.88,8.69,7.76,13.03,11.64l.95-1.08c-3.49-4.82-6.84-9.79-13.09-11.59Z"/>
      <path class="cls-1" d="M279.49,116.01c-1.3,0-2.71,.32-3.89-.05-9-2.86-18.1-5.49-26.85-8.99-3.65-1.46-6.54-4.82-9.72-7.38-1.54-1.23-2.89-3.57-4.45-3.68-2.35-.17-5.79,.47-6.95,2.08-1.06,1.47-.62,5.85,.74,6.89,3.72,2.86,8.06,5.32,12.54,6.66,5.2,1.56,11.01,1.16,16.2,2.76,4.96,1.53,9.8,4.05,14.04,7.04,2.94,2.07,4.89,5.88,2.53,9.71-2.49,4.06-6.32,2.96-9.81,1.49-6.83-2.89-13.59-5.96-20.4-9.8,2.95,.48,6.04,.55,8.81,1.55,4.68,1.68,9.1,4.06,13.73,5.9,1.18,.47,2.71,.02,4.09,0-.13-1.54,.18-3.29-.45-4.58-2.53-5.16-11.09-9.16-17.47-8.48-9.93,1.05-18.04-3.17-25.05-9.46-3.33-2.99-5.76-3.84-9.38-.85-3.83,3.16-8,6.58-6.77,11.79,1.34,5.7,5.86,9.59,11.43,11.67,1.17,.44,3.17,.12,4.08-.67,.71-.62,.39-2.49,.43-3.81,.02-.76-.14-1.53-.22-2.29,.39-.25,.78-.5,1.18-.75,1.18,1.5,3.03,2.9,3.3,4.55,.2,1.22-1.4,3.15-2.69,4.1-3.46,2.57-7.45,2.75-10.55-.26-3.78-3.67-7.41-7.69-10.18-12.13-1.17-1.89-1.02-6.01,.31-7.78,4.57-6.06,9.53-11.96,15.12-17.07,4.21-3.85,9.72-5.06,15.28-1.73,4.39,2.63,4.69-1.57,6.38-4.82,2.06,1.65,3.67,3.14,5.47,4.34,2.44,1.62,4.97,3.12,7.58,4.45,.77,.39,2.28,.44,2.86-.06,7.34-6.27,18.4-8,22.25-18.66,1.47-4.08,5.73-4.44,9.71-4.7,7.33-.47,11.66-5.25,14.93-11.44-2.76,2.01-5.53,4.03-9.29,6.77,.52-3.17,.87-5.02,1.12-6.88,.35-2.6,1.6-3.56,4.38-3.49,3.97,.09,7.95-.47,12.69-.81,.68,.78,2.28,2.63,3.37,3.88-4.6-1.48-8.2,.5-10.52,6.09-2.81,6.76-8.56,9.62-15.74,9.96-4.21,.2-7.37,1.17-9.34,6.07-4.18,10.36-23.22,17.26-33.15,13.11-1.63-.68-5.47,.05-5.81,1.01-.67,1.9-.4,5.25,.91,6.47,2.01,1.87,5.15,2.7,7.94,3.54,8.43,2.53,16.91,4.85,25.38,7.26-.04,.49-.08,.97-.12,1.46Z"/>
      <path class="cls-1" d="M478.21,394.34c-2.17,3-3.9,6.48-6.59,8.91-5.67,5.12-12.02,9.49-17.78,14.52-10.77,9.4-16.21,21.47-18.37,35.56-1.42,9.3-3.9,18.56-7.03,27.44-1.76,5-5.77,9.22-8.85,13.74-5.67,8.35-11.4,16.66-17.06,24.91-7.13-7.56-13.08-1.49-19.65-.72,8.94-7.54,17.87-15.08,27.12-22.88-7.63-4.07-16.62-2.25-22.7-8.41,7.99,1.8,16.18,2.99,23.89,5.62,4.63,1.58,6.76,.05,9.1-3.09,2.58-3.46,4.38-7.06,2.52-11.49,5.11-.95,6.6-4.05,8.05-11.12,2.42-11.81,5.61-23.47,8.77-35.11,.57-2.1,2.29-4.03,3.85-5.69,4.61-4.91,9.23-9.84,14.18-14.4,3.97-3.65,8.5-6.69,12.65-10.17,2.79-2.34,5.35-4.97,8-7.49-.01-.02-.09-.14-.09-.14Zm-71.99,113.74c2.67-3.84,5.33-7.68,8.18-11.78q-3.49,.08-8.18,11.78Z"/>
      <path class="cls-1" d="M52.73,280.76c-1.75,.08-2.88,.12-4,.18-4.34,.26-7.8,4.31-6.09,8.19,1.33,3,.75,4.34-1.38,6.26-1.4,1.27-2.12,3.28-3.22,5.06-6.46-2.24-12.85-4.46-19.12-6.63,3.7-3.96,7.87-8.42,12.04-12.89,1.74,1.59,3.53,3.21,5.67,5.16v-42.47c.65-.15,1.31-.31,1.96-.46,1.84,6.14,3.83,12.23,5.46,18.42,.96,3.64,1.8,7.41,1.89,11.14,.1,4.45,2.61,6.43,6.78,8.03Z"/>
      <path class="cls-1" d="M326.31,552.07c.88-1.02,1.54-2.25,2.57-2.9,7.26-4.57,11.08-11.77,14.66-19.1,.62-1.27,.09-3.1,.09-5.02,3.28,.5,3.87,3.22,4.31,5.91,.15,.94-.27,1.95-.37,2.94-1.01,10.2,3.26,13.95,12.95,10,11.38-4.63,23.41-8.51,31.92-18.31,.41-.47,1.34-.5,2.23-.34-6.15,7.17-13.7,12.5-22.36,15.86-7.05,2.74-14.53,4.35-21.81,6.51-1.07,.32-2.26,.66-3.04,1.38-5.8,5.27-13.08,3.53-19.83,4.28-.31,.03-.69-.61-1.32-1.2Z"/>
      <path class="cls-1" d="M28.57,241.39c-1.24,0-4.08,.8-5.1-.22-1.08-1.08-1.16-4.23-.39-5.88,3.45-7.49,6.68-15.23,11.28-22,5.05-7.43,10.94-14.2,11.7-23.76,.5-.18,.99-.36,1.49-.55,.9,1.31,2.66,2.7,2.54,3.92-.37,4.01-.52,8.48-2.41,11.83-3.72,6.61-8.72,12.48-12.87,18.86-2.23,3.43-4.03,7.21-5.57,11.01-.74,1.81-.43,4.05-.66,6.8Z"/>
      <path class="cls-1" d="M525.96,203.18v4.24c-1.53-.71-3.36-1.12-4.5-2.23-1.08-1.06-1.44-2.87-2.29-4.74,5.83-2.86,11.12-.38,15.13,2.09,3.11,1.91,4.48,6.85,6.17,10.65,.26,.59-1.93,2.27-3.66,4.19,.15,1.88,.62,5.13,.61,8.38-.04,10.62-5.96,15.59-16.16,12.91-5.56-1.46-8.42,.77-10.86,5.01-1.86,3.23-3.78,6.44-6.08,9.43,1.47-6.78,4.45-12.91,9.37-17.71,1.13-1.11,4.65-.48,6.75,.25,3.59,1.25,6.78,2.16,10.46,.06,6.79-3.87,7.33-10.71,1.34-15.99-1.13-1-1.54-3.77-1.1-5.41,1.72-6.44,.89-8.48-5.18-11.14Z"/>
      <path class="cls-1" d="M526.53,356.87c-1.66-1.1-3.46-2.04-4.96-3.34-4.65-4.04-9.18-8.23-13.76-12.34-2.42-2.17-4.87-4.32-7.27-6.45,9.89,1.79,19.61,3.55,29.66,5.37,.57,5.59,2.15,11.13,8.77,14.33-7.48,.07-9.72-5.45-12.87-9.81-.4,.18-.79,.36-1.19,.54,.96,2.8,1.92,5.6,3.08,8.98-.23,.42-.92,1.64-1.61,2.86l.14-.14Z"/>
      <path class="cls-1" d="M375.87,134.42c-4.25-2.19-7.75-4-10.01,.2-.81,1.51-.81,4.54,.18,5.7,2.42,2.82,5.22,1.68,7.22-1.69-.77,.25-1.59,.79-2.31,.68-1.06-.16-2.05-.79-3.08-1.21,.7-.9,1.67-2.69,2.06-2.57,3.38,1.05,8.14,1.48,9.7,3.9,6.44,10.03,15.61,16.04,26.21,20.47,.59,.25,1.09,.72,1.88,1.26-2.97,.49-5.63,1.22-8.31,1.26-1.69,.03-3.98-.43-5.01-1.57-4.77-5.27-9.18-10.85-13.74-16.31-1.03-1.24-2.13-2.41-3.15-3.56-7.27,4.5-12.37,4.27-15.23-.43-2.01-3.29-.66-7.74,2.98-9.84,3.38-1.95,7.89-.8,10.62,3.7Z"/>
      <path class="cls-1" d="M526.4,357.01c8.58-1.19,16.24,2.07,25.32,4.38-7.71,3.06-7.89,3.43-7.36,11.32-.93-1.86-1.87-3.73-3.48-6.95v7.23c-6.62,1.66-8.08,1.12-10.7-5.01-1.53-3.57-2.45-7.4-3.65-11.11,0,0-.14,.14-.14,.14Z"/>
      <path class="cls-1" d="M308.26,216.26c.29-10.79,24.05-36.79,40.1-42.06-14.02,14.71-27.19,28.51-40.1,42.06Z"/>
      <path class="cls-1" d="M365.82,166.96c-5.58,1.39-11.11,2.77-18.11,4.52,2.12-1.71,3.35-2.31,3.93-3.3,.49-.83,.7-2.41,.22-3.11-1.23-1.82-2.91-3.33-4.41-4.97,.15-.6,.31-1.21,.46-1.81-5.84,2.58-11.68,5.15-18.35,8.1,14.3-15.26,27.65-15.47,36.25,.56Z"/>
      <path class="cls-1" d="M341.35,135.8c-1.57,0-3.05,.19-4.46-.04-2.98-.49-3.86-1.75-2.18-4.81,2.42-4.42,4.25-9.16,6.38-13.86,.38,.41,1.62,1.75,3.26,3.52,2.59-2.69,8.71-.59,8.75-7.39,1.35,.81,2.51,1.51,3.67,2.21l1.09-1.14c-1.5-1.53-3.01-3.05-4.44-4.51-2.76,3.39-4.83,5.93-7.07,8.69-2.33-2.16-3.85-3.57-5.97-5.54,1.47-1.19,2.61-2.74,4.08-3.16,2.85-.8,6.02-1.7,8.78-1.15,2.33,.47,4.8,2.56,6.25,4.61,1.86,2.63-.94,3.56-2.83,4.52-2.47,1.25-5.22,2.14-7.33,3.84-3.39,2.73-6.51,5.85-9.34,9.15-.55,.64,.72,2.84,1.37,5.07Z"/>
      <path class="cls-1" d="M284.31,208.07c3.82-6.36,3.95-14.61,12.11-18.8,5.1-2.62,6.97-8.22,4.44-15.58,3.64,1.61,5.97,2.64,9.2,4.07-2.4,.26-3.76,.41-4.46,.48-1.37,4.02-2.87,7.49-3.63,11.12-.28,1.35,1.15,3.06,2.09,5.31-5.66,4.29-12.27,9.29-18.88,14.3-.29-.3-.58-.61-.86-.91Z"/>
      <path class="cls-1" d="M285.62,111.65c.32,2.02,1.15,4.12,.86,6.06-1.07,7.19,3.55,13.95,10.68,15.48,1.09,.23,2.12,1.48,2.86,2.5,2.25,3.07,4.66,5.48,8.98,5.19,1.45-.1,3.82,.83,4.27,1.91,.52,1.24-.14,3.69-1.17,4.67-1.19,1.12-4.03,2.19-4.99,1.55-2.94-1.99-5.42-4.7-7.89-7.32-2.03-2.15-3.42-5.02-5.71-6.77-7.7-5.87-14.06-12.07-9.27-23.17l1.38-.1Z"/>
      <path class="cls-1" d="M218.25,168.5c-1.25,1.4-2.27,3.15-3.79,4.15-4.13,2.72-8.61,4.92-12.68,7.7-3.15,2.16-6.25,4.75-3.22,10.75-4.57-.55-8.14-.98-11.71-1.41-.12-.69-.23-1.39-.35-2.08,7.94-9.9,20.36-13.35,30.34-20.31l1.41,1.2Z"/>
      <path class="cls-1" d="M422.88,163.32c-31.61-12.84-36.14-15.78-40.03-25.64,1.36,1.16,3.03,2.1,4.04,3.52,3.54,4.96,8.43,7.21,14.3,8.04,1.65,.23,4.02,.96,4.61,2.16,2.6,5.31,7.4,6.66,12.39,8.22,1.78,.56,3.14,2.43,4.7,3.7Z"/>
      <path class="cls-1" d="M412.43,149.61c7.42-.59,13.91,.24,18.14,6.36,3.72,5.39,6.33,11.22,7.89,17.47-.55,.36-1.1,.72-1.64,1.08-1.53-1.85-3.78-3.47-4.45-5.6-2.54-8.06-6.4-14.41-15.53-16.14-1.61-.31-2.95-2.09-4.41-3.19Z"/>
      <path class="cls-1" d="M492.11,309.61c-3.76,1.74-7.58,3.34-11.24,5.27-1.65,.87-2.96,2.4-4.42,3.64,1.9,1.17,3.75,2.41,5.72,3.45,.64,.34,1.57,.12,2.87,.18-2.92,3.48-5.77,4.43-9.79,2.82-3.89-1.55-8.07-2.4-13.57-3.97,10.4-4.6,20.02-8.85,29.64-13.1,.26,.57,.52,1.14,.78,1.71Z"/>
      <path class="cls-1" d="M514.97,326.98c-.16,2.51-.28,4.51-.42,6.8-1.15-.69-2.44-1.15-3.31-2.04-3.78-3.82-8.34-3.85-12.28-1.33-5.32,3.4-8.44,.13-13.21-2.99,10.62-4.81,20.26-1.24,29.22-.44Z"/>
      <path class="cls-1" d="M285.6,197.18c-2.17,4.95-3.57,8.14-4.97,11.33-.53-6.21-5.85-3.78-8.5-5.36-1.2-.72-2.99-.45-4.25-1.11-.8-.42-1.6-1.78-1.52-2.64,.08-.9,1.2-2.43,1.88-2.44,5.32-.1,10.65,.1,17.36,.23Z"/>
      <path class="cls-1" d="M107.78,442.71c.66-3.54,1.16-6.24,1.68-9.08,5.69,5.09,11.67,10.36,17.56,15.73,3.3,3.01,6.53,6.11,9.64,9.32,2.32,2.4,5,4.87,3.48,7.69-2.22-2.34-4.36-4.68-6.6-6.92-4.45-4.45-8.83-8.99-13.49-13.22-3.4-3.09-6.98-6.44-12.27-3.52Z"/>
      <path class="cls-1" d="M321.33,130.9l-2.43-1.41c5.59,1.41,9.96-.67,13.58-4.69,3.81-4.23,2.9-8.73-2.29-11.9,5.37-.59,7.73,2.25,6.49,7.79-1.8,8.02-13.95,15.06-22.1,13.45-3.38-.67-7.09,.33-11.18,.6q-1.19-2.61,17.93-3.84Z"/>
      <path class="cls-1" d="M415.6,479.31c0,1.93,.07,2.58-.01,3.23-1.18,9.73-1.62,8.3-8.49,6.48-2.09-.55-4.24-.97-6.38-1.18-5.59-.55-9.98-2.36-12.7-7.98-1.03-2.13-4.64-3.01-7.02-4.43,3.14-1.41,6.71-.59,9.39,2.22,4.36,4.58,8.5,8.74,15.46,9.48,6.23,.67,6.17,1.3,9.75-7.82Z"/>
      <path class="cls-1" d="M402.17,102.02c-9.11-1.59-18.27-2.96-27.31-4.88-2.78-.59-5.58-2.29-7.78-4.16-4.92-4.18-9.05-9.51-16.9-8.43,.27-.68,.55-1.35,.82-2.03,3.62,1.11,8.18,1.2,10.68,3.51,7.55,6.98,16.16,10.41,26.24,11.12,3.59,.26,7.16,1.28,10.67,2.2,1.45,.38,2.72,1.41,4.07,2.15-.16,.17-.32,.35-.48,.52Z"/>
      <path class="cls-1" d="M58.65,266.44c3.21-3.14,6.18-6.59,9.72-9.3,2.02-1.55,5.13-3.36,7.08,.7,1.66,3.45,1.96,6.46-2.71,7.76-5.43-7.71-8.61,2.41-13.09,2.5-.34-.55-.68-1.1-1.02-1.65Z"/>
      <path class="cls-1" d="M185.44,172.55c-.83,1.31-1.4,2.92-2.53,3.89-4.88,4.18-10.07,8.02-14.82,12.35-1.45,1.33-1.84,3.82-2.97,6.34h-5.61c6.53-10.14,16.16-15.96,24.26-23.35,.56,.26,1.12,.52,1.67,.78Z"/>
      <path class="cls-1" d="M149.45,474.69c13.03,.12,20.29,5.51,25.07,18.6-2.98-3.3-5.98-6.58-8.92-9.92-4.18-4.74-8.91-6.62-15.24-4.19-2.23,.86-5.08,.14-7.64,.14,.04-.43,.09-.87,.13-1.3,2.2-1.11,4.4-2.22,6.6-3.34Z"/>
      <path class="cls-1" d="M29.28,276.19c-1.8-2.99-2.97-7.27-5.61-8.56-2.12-1.03-6.01,1.56-9.89,2.79,3.04-6.33,8.84-6.38,13.75-8.43,1.58,3.93,3.14,7.53,4.44,11.23,.39,1.12,.55,3-.08,3.63-.75,.75-2.48,.52-3.78,.72,.39-.46,.78-.92,1.17-1.38Z"/>
      <path class="cls-1" d="M218.63,185.17c-.61,1.71-1.04,2.9-1.73,4.84,2.35,.18,4.22,.32,6.09,.46,.08,.35,.17,.7,.25,1.05-3.53,.68-7.04,1.68-10.6,1.9-1.39,.08-2.88-1.6-4.33-2.48,1.49-1.83,2.68-4.1,4.56-5.35,1.29-.86,3.52-.31,5.76-.41Z"/>
      <path class="cls-1" d="M23.1,311.43c.45-5.24-1-6.4-11.43-9.15,6.21-3.71,14.43-1.41,17.28,4.83,1.16,2.54-.5,3.76-5.85,4.33Z"/>
      <path class="cls-1" d="M18.27,259.27c1.49-1.22,2.99-2.45,5.33-4.37-2.76-1.8-5.07-3.3-8.29-5.39,2.97-1.06,5.86-3.12,8.11-2.57,1.79,.44,3.8,4,3.95,6.29,.36,5.78-6.63,3.08-9.09,6.04Z"/>
      <path class="cls-1" d="M307.88,234.26c.34-6.85,4.72-10.79,10.58-10.89,.89-.01,2.6,1.5,2.57,2.26-.11,3.34-4.95,5.36-7.47,3.79-1.98,1.68-3.83,3.26-5.69,4.84Z"/>
      <path class="cls-1" d="M349.66,139.12c-6.3,.98-12.6,1.96-19.05,2.97q-4.92-5.98-2.39-8.97c3.2,8.35,9.73,5.14,15.54,4.71,1.96-.15,3.93-.24,5.89-.35,0,.55,0,1.1,0,1.65Z"/>
      <path class="cls-1" d="M436.78,321.18c-5.37,1.9-10.75,3.8-16.12,5.71,4.86-4.2,6.28-11.24,13.01-15.6-1.98,3.23-3.21,5.24-4.97,8.12,3.17,.32,5.48,.56,7.79,.79,.1,.32,.19,.65,.29,.97Z"/>
      <path class="cls-1" d="M452.31,319.38c3.93-.68,7.02-1.21,10.09-1.74-4.55,4.42-9.42,4.66-15.91-.03,5.39-4.12,10.5-8.02,15.6-11.92-1.07,6.02-9.7,5.58-9.78,13.69Z"/>
      <path class="cls-1" d="M418.66,136.55c4.31,2.68,8.82,5.1,12.87,8.12,3.54,2.64,6.77,5.88,3.77,11.48,.44-12.1-13.53-11.04-17.64-18.91,.33-.23,.67-.46,1-.69Z"/>
      <path class="cls-1" d="M506.87,228.76c2.59-5.85,4.11-6.37,9.38-2.54-.92,1.25-1.85,2.5-3.42,4.63-.33-2.14-.5-3.25-.81-5.31-1.41,2.87-2.42,4.95-3.44,7.05-5.3-3.29-6.13-6.18-2.66-9.47,.33,1.95,.64,3.8,.96,5.64Z"/>
      <path class="cls-1" d="M225.88,488.58c4.54,2.72,2.44,10.17,9.24,10.16v-14.41c.4-.05,.8-.09,1.2-.14,.4,4.63,1.07,9.27,1.03,13.9,0,1.24-2.06,3.3-3.36,3.46-1.26,.16-3.34-1.34-4.04-2.65-1.59-3-2.55-6.33-4.07-10.32Z"/>
      <path class="cls-1" d="M330.41,380.84c1.4-5.71,2.8-11.44,4.21-17.16l1.57,.3c-.53,4.57-6.66,9.57-.27,13.46,2.12,1.29,6.09-.47,8.85-.79-1.52,2.19-4.16,3.82-8.07,3.46-1.58-.15-3.22,.35-6.28,.74Z"/>
      <path class="cls-1" d="M343.36,88.93c-1.19,3.06-2.42,6.1-3.55,9.17-3.05,8.35-9.05,10.75-16.84,6.67-1.02-.53-1.98-1.16-2.69-2.57,1.22,.5,2.5,.88,3.65,1.51,5.85,3.16,11.11,1.19,13.54-4.98,1.41-3.6,3.12-7.08,4.69-10.61l1.21,.81Z"/>
      <path class="cls-1" d="M209.17,267.82c1.69,.95,3.38,1.91,5.61,3.16,1.8,1.83,4.32,4.4,6.87,7-4.3,1.63-4.56,1.43-12.48-10.16Z"/>
      <path class="cls-1" d="M350.32,127.62c1.17,1.49,2.67,2.84,3.39,4.53,.54,1.27,.07,2.97,.05,4.48-.56,.01-1.11,.03-1.67,.04-1-1.26-2-2.51-2.8-3.52-1.64,.29-3.11,.55-4.59,.81,.37-1.24,.74-2.48,1.1-3.7,1.49-.87,3.01-1.75,4.52-2.63Z"/>
      <path class="cls-1" d="M61.74,360.28c-.56,3.21-1.66,4.64-5.32,2.84-1.72-.84-4.41-.36-6.45,.23-2.92,.84-5.65,2.34-8.6,3.16,5.22-3.53,10.21-7.76,17.31-5.44,.85,.28,2.05-.51,3.08-.81h-.02Z"/>
      <path class="cls-1" d="M354.82,138.59c4.66,5.04,9.24,9.98,13.4,14.48-5.59,0-13.88-8.47-13.4-14.48Z"/>
      <path class="cls-1" d="M351.75,359.09c1.39,2.2,.3,6.77,5.06,5.77,5.77-1.21,5.51-6.16,6.39-10.44-.44,3.92,1.48,8.77-3.42,10.96-2.15,.96-5.4,1.23-7.35,.25-1.45-.73-1.62-4-2.37-6.13,.56-.14,1.13-.27,1.69-.41Z"/>
      <path class="cls-1" d="M380.86,480.59c3.45,2.97,4.9,7.39,1.71,10.57-1.77,1.77-5.96,1.12-9.06,1.57-.04-.41-.07-.81-.11-1.22,2.61-.99,6.3-1.29,7.52-3.17,1.24-1.91,.04-5.4-.06-7.74Z"/>
      <path class="cls-1" d="M307.26,392.01h-10.27c1.37-4.62,2.56-8.63,3.75-12.65l.78,.4c0,2.93-.66,6.08,.25,8.69,.55,1.6,3.52,2.36,5.5,3.56Z"/>
      <path class="cls-1" d="M372.38,510.41c4.87-.31,9.74-.63,14.61-.94,.25,.4,.5,.81,.76,1.21-1.6,1.76-3.19,3.51-5.33,5.88v-4.87h-10.3c.09-.43,.18-.85,.28-1.28Z"/>
      <path class="cls-1" d="M266.56,248.51c2.37-1.56,4.74-3.11,7.11-4.67-.49,2.08-.55,4.44-1.65,6.12-.65,.99-2.96,.89-4.52,1.27-.31-.91-.63-1.82-.94-2.72Z"/>
      <path class="cls-1" d="M281.68,243.36c1.18,8.8-.24,10.81-7.1,10.13,2.32-3.31,4.37-6.24,7.1-10.13Z"/>
      <path class="cls-1" d="M454.8,239.03c5.41-1.52,11.77-3.3,17.51-4.91-2.84,4.38-8.72,6.09-17.51,4.91Z"/>
      <path class="cls-1" d="M350.32,127.62c-1.51,.88-3.03,1.77-4.52,2.63-.82,.27-1.65,.55-2.49,.83-.29-.36-.57-.72-.86-1.09,2.05-1.86,3.91-4.02,6.24-5.41,.83-.49,2.78,.9,4.22,1.43-.86,.53-1.72,1.07-2.58,1.6Z"/>
      <path class="cls-1" d="M282.49,70.6l13.59-2.05c.08,.59,.16,1.19,.25,1.78l-13.55,3.2c-.09-.98-.19-1.96-.28-2.94Z"/>
      <path class="cls-1" d="M524.52,196.93c-7.88,1.31-9.14,2.75-6.75,8.28-3.22-.88-4.24-2.78-3.34-5.55,1.05-3.22,5.35-4.3,10.09-2.73Z"/>
      <path class="cls-1" d="M416.67,326.92c-2.83,1.32-5.62,2.77-8.55,3.81-.52,.18-2.21-1.26-2.43-2.18-1.13-4.59,.43-8.34,4.69-10.93-.97,1.63-2.34,3.16-2.78,4.92-.46,1.8,0,3.84,.04,5.77,2.1-.39,4.22-.69,6.27-1.24,.71-.19,1.26-1.01,1.88-1.54,.3,.46,.59,.93,.89,1.39Z"/>
      <path class="cls-1" d="M215.76,483.45c-5.54-4.16-11.09-8.33-16.63-12.49l.94-1.3c5.52,4.21,11.03,8.41,16.55,12.62-.29,.39-.57,.78-.86,1.17Z"/>
      <path class="cls-1" d="M339.93,155.25c3.3-4.21,7.79-6.72,3.19-11.65,.47-.24,.94-.48,1.41-.72,1.33,1.47,3.83,3.01,3.75,4.4-.24,4.16-3.69,5.83-8.35,7.97Z"/>
      <path class="cls-1" d="M340.87,145.73c-3.33,.8-6.67,1.6-9.77,2.35,.77-2.79,2.73-4.37,6.8-4.55,1.27-.06,2.59,.8,3.88,1.23-.3,.32-.61,.65-.91,.97Z"/>
      <path class="cls-1" d="M368.85,347.14c2.08,4.35,5.13,5.53,8,2.61,2.11-2.15,2.88-5.61,4.32-8.66-.81,7.95-2.81,11.04-7.29,11.21-2.92,.11-5.39-.47-5.02-5.16Z"/>
      <path class="cls-1" d="M298.52,176.94c-.14,1.87,.37,4.21-.56,5.53-1.83,2.61-4.5,4.54-8.91,2.92,3.49-2.65,10.76-1.29,7.84-8.74,.54,.1,1.09,.2,1.63,.3Z"/>
      <path class="cls-1" d="M178.67,173.64c-5.08,3.53-10.15,7.05-15.23,10.58-.14-.2-.28-.4-.42-.6,4.98-3.67,9.97-7.34,14.95-11.01,.23,.34,.47,.68,.7,1.03Z"/>
      <path class="cls-1" d="M278.43,184.27c-.56,1.43-1.18,3.03-2.09,5.38-2.32-2.56-4.17-4.59-6.35-7,3.04,.58,5.38,1.04,8.44,1.62Z"/>
      <path class="cls-1" d="M356.54,311.77c3.46,5.3,4.02,10.88,1.98,17.15-.65-6.04-1.26-11.65-1.86-17.26,0,0-.11,.11-.11,.11Z"/>
      <path class="cls-1" d="M431.65,153.05c-3.87-2.54-7.73-5.07-11.6-7.61,.43-.6,.86-1.2,1.29-1.79,3.78,2.77,7.55,5.53,11.33,8.3-.34,.37-.68,.74-1.02,1.11Z"/>
      <path class="cls-1" d="M61.75,360.27c3.34,1.04,6.73,1.97,9.96,3.26,.41,.16,.06,2.24,.06,3.42-3.71-2.47-6.87-4.57-10.03-6.68,0,0,.01,0,.01,0Z"/>
      <path class="cls-1" d="M255.67,176.39c3.83,2.3,6.69,4.02,10.11,6.08-1.1,1.04-1.78,1.68-2.39,2.26-2.47-2.67-4.6-4.97-7.72-8.34Z"/>
      <path class="cls-1" d="M366.21,119.68c-1.07-2.67-1.58-4.34-2.39-5.86-.82-1.53-1.93-2.9-3.21-4.77,4.6,1.77,6.9,5.61,5.6,10.64Z"/>
      <path class="cls-1" d="M265.72,233c-10.92,1.45-21.84,2.91-33.95,4.52,4.11-2.69,7.47-4.89,10.84-7.09-.14-.39-.28-.78-.42-1.17-7.82,1.69-15.65,3.38-23.47,5.07,9.12-6.81,19.37-9.78,31.81-9.21-1.3,1.8-2.05,2.86-3.77,5.24,6.82,.66,12.88,1.25,18.94,1.84,.01,.27,.03,.53,.04,.8Z"/>
      <path class="cls-1" d="M137.59,312.1c7.45-2.41,14.29-4.63,21.85-7.08-1.8,6.06-5.79,8.91-10.61,10.74-4.02,1.53-7.78,1.11-11.24-3.67Z"/>
      <path class="cls-1" d="M271.34,519.43c.64,3.58,1.16,6.91,3.07,10.42,2.85,5.24,1.85,11.45-1.63,16.88-1.23-9.06-6.39-17.86-1.36-27.2,0,0-.08-.1-.08-.1Z"/>
      <path class="cls-1" d="M168.37,333.2c-2.34-.63-4.69-1.26-6.99-1.87,1.37-5.31,2.64-10.28,3.92-15.26,2.74,5.54,3.38,11.32,2.99,17.28l.08-.15Z"/>
      <path class="cls-1" d="M47.3,314.08c2.87-6.96,6.08-14.74,9.45-22.92,2.33,6.12-3.6,19-9.45,22.92Z"/>
      <path class="cls-1" d="M168.29,333.35c1.66-2.81,3.32-5.63,4.98-8.45,2.64,2.24,2.72,11.44,0,12.94-.64,.35-2.25-.14-2.81-.78-.95-1.08-1.41-2.57-2.08-3.88,0,.01-.08,.16-.08,.16Z"/>
      <path class="cls-1" d="M340.95,457.2c2.97-1.01,5.93-2.03,8.9-3.04l.84,2.14c-2.85,1.25-5.7,2.51-8.56,3.76-.39-.96-.79-1.91-1.18-2.87Z"/>
      <path class="cls-1" d="M176.83,343c.7-4.45,1.21-7.68,1.81-11.54,4.43,4.66,2.52,7.67-1.81,11.54Z"/>
      <path class="cls-1" d="M253.24,247.28c-2.88,1.02-5.76,2.05-8.63,3.07-.22-.49-.44-.99-.66-1.48,2.78-1.3,5.56-2.61,8.34-3.91,.32,.77,.64,1.55,.96,2.32Z"/>
      <path class="cls-1" d="M255.7,141.18c-3.47-2.19-6.95-4.38-10.42-6.57,.25-.45,.51-.9,.76-1.34,3.64,1.82,7.29,3.63,10.93,5.45-.42,.82-.85,1.64-1.27,2.46Z"/>
      <path class="cls-1" d="M410.77,182.79c-6.23,1.23-12.12,2.39-17.99,3.54,2.2-6.88,10.69-8.64,17.99-3.54Z"/>
      <path class="cls-1" d="M375.14,105.03c6.25,1.8,9.6,6.77,13.09,11.59l-.95,1.08c-4.34-3.88-8.69-7.76-13.03-11.64,.3-.34,.59-.69,.89-1.03Z"/>
      <path class="cls-1" d="M406.22,508.07q4.7-11.7,8.18-11.78c-2.85,4.11-5.52,7.95-8.18,11.78Z"/>
      <path class="cls-1" d="M138.08,228.29l5.73,2.1c-.52,1.17-1.04,2.33-1.92,4.31-1.65-2.94-2.66-4.74-3.67-6.52-.01,0-.14,.11-.14,.11Z"/>
      <path class="cls-1" d="M162.48,373.38c3.41-.58,6.42-1.09,9.69-1.65,1.8,3.35,.8,5.41-2.61,6.44-3.8,1.14-5.92-.46-7.07-4.79Z"/>
      <path class="cls-1" d="M166.27,363.65c-.56,6.79-8.53,7.95-11.22,3.36-1.53-2.61-3.03-5.25-5.33-9.22,3.11,2.67,5.68,4.04,7,6.18,2.74,4.43,5.45,4.85,9.55-.32Z"/>
    </g>
  </g>
</svg>