<?xml version="1.0" encoding="UTF-8"?>
<svg id="Layer_2" data-name="Layer 2" xmlns="http://www.w3.org/2000/svg" viewBox="0 0 970 345.86">
  <defs>
    <style>
      .cls-1 {
        fill: #fff;
      }

      .cls-2 {
        fill: #a30000;
      }
    </style>
  </defs>
  <g id="Layer_1-2" data-name="Layer 1">
    <g>
      <path class="cls-2" d="M489.01,116.79c-4.52,2.04-8.18,3.61-11.77,5.32-9.55,4.55-18.99,9.36-28.66,13.64-3.34,1.48-3.21,3.76-3.22,6.43-.11,38.33-.29,76.66-.31,115,0,15.16,.42,30.32,.38,45.48,0,1.78-1.3,4.08-2.73,5.25-3.88,3.16-5.95,6.85-6.58,11.85-1.16,9.21-4.48,17.7-10.85,26.1-.21-2.28-.45-3.63-.45-4.97,.03-70.83,.13-141.66,.03-212.49,0-4.19,1.44-6.1,5.17-7.75,9.37-4.15,18.51-8.79,27.73-13.27,1.29-.63,2.49-1.45,4.53-2.65-4.05-2.42-7.34-4.66-10.86-6.44-7.65-3.86-15.49-7.36-23.08-11.32-1.58-.82-3.42-3.03-3.44-4.61-.2-26.5-.13-53-.1-79.5,0-.47,.24-.93,.53-2.01,6.16,2.97,12.27,5.68,18.08,8.92,1.23,.69,1.9,3.32,1.92,5.06,.14,16.83,.17,33.66,0,50.5-.04,3.84,1.18,6.1,4.74,7.77,11.55,5.43,22.96,11.17,34.45,16.74,1.15,.56,2.46,.83,4.47,1.48,0-2.5,0-4.44,0-6.38,0-22.83,.14-45.67-.14-68.5-.06-4.62,1.4-6.95,5.63-8.53,5.12-1.91,10.02-4.42,15.51-6.9V343.71c-.88,.23-.76,.2-1.64,.42-1.97-3.5-4.38-6.83-5.75-10.55-2.42-6.56-4.14-13.37-6.23-20.05-.96-3.07-2.13-5.91-5.97-6.71-.86-.18-1.93-2.11-1.93-3.23,.16-39.49,.49-78.97,.66-118.45,.09-20.67-.08-41.33-.13-62,0-1.78,0-3.56,0-6.35Z"/>
      <path class="cls-2" d="M605.95,.84c-.11,19.99,1.62,39.67-5.17,58.72-9.86,27.65-28.16,47.16-55.5,57.99-2.89,1.15-4.59,2.16-4.59,5.84-.06,57.98-.33,115.97-.39,173.95,0,2.34,1.55,4.69,2.59,7.62-.27,.17-1.26,.9-2.35,1.47-6.08,3.17-9.53,7.58-9.52,15,.01,9.7-5.64,17-11.18,23.3,.85-97.69-.59-195.7-.2-293.71,.06-14.65-.55-29.32-1.43-43.95-.31-5.15,1.25-7.03,6.1-6.88,1.66,.05,3.33-.19,4.99-.19,22.66,.02,45.32,.03,67.98,.11,2.78,.01,5.57,.45,8.66,.73Zm-64.95,94.02c1.35-.44,2.28-.67,3.16-1.03,23.41-9.84,42.48-42.26,39.86-67.51-.29-2.85-1.72-3.14-3.94-3.13-6.99,.03-13.97-.01-20.96-.02-5.93,0-11.86,0-18.13,0V94.85Z"/>
      <path class="cls-1" d="M113.29,127.67c4.6,1.94,8.06,3.11,11.18,4.88,1.13,.64,1.84,2.64,2.09,4.13,3.82,23.17,7.49,46.36,11.3,69.53,.61,3.72,1.74,7.36,3.87,11.12,.39-1.26,.93-2.49,1.14-3.78,3.99-23.64,8.3-47.24,11.7-70.97,1.21-8.42,4.9-12.95,13.42-14.25v171.3c-.72,.11-.51,.08-1.23,.19-3-9.47-9.98-17.09-9.39-28.39,.93-17.77,.16-35.64,.08-53.46,0-1.44-.23-2.87-.4-4.77-4.85,1.28-5.6,4.88-6.15,8.44-2.16,13.99-4.22,28-6.33,41.99-.86,5.69-1.77,11.37-3.73,17.06-2.35-13.37-4.75-26.74-7.02-40.13-1.06-6.24-2.04-12.5-2.71-18.79-.37-3.5-1.76-5.15-5.43-4.76,0,5.52-.02,10.98,0,16.44,.05,14.49,.2,28.99,.07,43.48-.02,1.87-1.39,3.75-2.24,5.58-1.59,3.43-3.36,6.78-4.86,10.26-1.06,2.47-1.8,5.08-3.74,7.34-.54-57.13-1.08-114.26-1.64-172.42Z"/>
      <path class="cls-1" d="M88.75,174.99l.35,1.62c-5.34,2.42-10.62,4.99-16.04,7.2-3.19,1.3-4.58,3.06-4.59,6.71-.09,26.16-.17,52.32-.83,78.47-.16,6.52-1.93,13.15-3.89,19.44-1.56,5-4.54,9.56-7.75,14.1V126.99h49v175.94c-.55,.12-.45,.1-1,.22-1.16-2.51-2.23-5.07-3.51-7.52-2.13-4.08-4.53-8.01-6.55-12.14-.75-1.53-1.02-3.44-1.02-5.18-.07-44.95-.08-89.89-.12-134.84,0-1.32-.16-2.63-.28-4.6-7.48,0-14.79-.06-22.09,.1-.72,.02-2.01,1.42-2.02,2.19-.13,11.02-.09,22.03-.09,33.82h20.43Z"/>
      <path class="cls-1" d="M0,127.96c.71,.04,1.07-.02,1.36,.09,11.76,4.8,9.72,1.78,10.04,13.78,.27,10.26,.06,20.54,.06,31.9,8.37-3.49,15.88-6.48,23.22-9.84,1-.46,1.59-2.71,1.65-4.16,.25-7.16,.54-14.33,.24-21.48-.2-4.95,1.42-7.85,6.34-8.88,1.72-.36,3.35-1.14,5.64-1.94,0,11.5,0,22.43-.01,33.36,0,1.5-.35,3.01-.2,4.49,.39,3.74-1.11,5.83-4.78,6.89-3.99,1.16-7.91,2.65-11.69,4.38-1.19,.55-2.4,2.25-2.53,3.53-.09,.9,1.45,2.38,2.58,2.91,4.52,2.12,9.27,3.76,13.7,6.04,1.42,.73,3.02,2.85,3.02,4.33-.1,34.82-.41,69.63-.7,104.44,0,.9-.28,1.81-1.38,2.89-1.62-3.92-2.49-8.44-5.02-11.66-6.05-7.69-5.13-16.33-5.08-25.06,.14-21.16,.12-42.32,.06-63.47,0-1.49-.42-3.89-1.37-4.34-7.74-3.63-15.65-6.91-23.69-10.36,0,7.57-.02,14.02,0,20.47,.09,24.15,.19,48.31,.28,72.46,0,.66,.25,1.7-.08,1.94-6.58,4.76-5.47,13.72-10.6,19.24-.08,.09-.29,.07-1.06,.23V127.96Z"/>
      <path class="cls-1" d="M301.42,301.38c-.97-2.34-1.83-4.72-2.95-6.99-1.79-3.64-3.86-7.15-5.57-10.82-.77-1.65-1.14-3.45-1.15-5.27-.11-44.73-.14-89.47-.21-134.2,0-1.62-.15-3.24-.24-5.1h-24.31v38h18.67c.18,.85,.15,.69,.33,1.54-4.82,2.12-9.51,4.58-14.5,6.24-4.04,1.34-5.06,3.49-5.05,7.38,.06,28.33-.17,56.66-.19,85,0,3.44-.54,6.28-3.02,9.1-1.93,2.19-2.67,5.35-3.87,8.11-1.11,2.54-2.13,5.11-4.38,7.41V127.99h48v173.07c-.88,.18-.7,.14-1.58,.32Z"/>
      <path class="cls-1" d="M831,300.69c-4.45-11.34-9.29-22.26-8.48-35,1.03-16.11,.25-32.34,.25-48.52-3.58,0-5.2,1.85-5.74,7.38-1.72,17.47-3.51,34.93-5.3,52.39-.11,1.07-.38,2.12-1.52,3.24-.32-2.21-.73-4.41-.95-6.62-1.6-15.63-3.47-31.25-4.57-46.92-.37-5.28-2.82-6.39-7.66-6.8,.3,6.06,.69,11.82,.85,17.59,.36,13.54,.66,27.08,.83,40.62,.02,1.9-.67,3.88-1.32,5.72-1.81,5.17-3.78,10.29-6.4,15.54V127.96c5.02,1.45,8.12,4.06,8.77,10.4,2.37,22.95,5.44,45.83,8.26,68.73,.22,1.81,.53,3.62,.81,5.49,4.38,.08,4.27-3.12,4.61-5.85,2.43-19.75,4.82-39.5,7.23-59.26,.4-3.32,1.12-6.63,1.18-9.96,.11-5.8,3.28-8.2,9.13-8.84v172.01Z"/>
      <path class="cls-1" d="M227.04,177.93l-.18,1.76c3.18,2.09,6.28,4.31,9.58,6.19,2,1.14,4.58,1.34,6.43,2.64,1.48,1.05,3.2,3.11,3.2,4.72,.04,35.31-.15,70.62-.31,105.93,0,.6-.21,1.19-.61,3.32-2.08-5.22-2.84-9.75-5.35-12.89-5.88-7.36-5.14-15.63-5.1-24.04,.12-21.32-.09-42.64,.14-63.96,.04-4.05-1.31-5.98-4.91-7.34-6.67-2.52-13.2-5.42-20.53-8.47-.14,2.45-.34,4.19-.34,5.94-.03,28.48,.03,56.96-.16,85.44-.02,2.54-1.51,5.13-2.55,7.59-1.42,3.35-3.16,6.57-4.6,9.91-1.01,2.34-1.76,4.8-3.74,6.92V127.53c3.14,1.22,6.34,2.11,9.12,3.73,1.16,.68,1.96,2.92,1.97,4.46,.13,10.82,0,21.65-.03,32.48,0,1.61,0,3.22,0,5.78,8.44-3.53,16.1-6.6,23.6-10.02,1.05-.48,1.82-2.65,1.86-4.07,.17-7.16,.39-14.34-.08-21.48-.31-4.76,1.11-7.52,5.75-8.74,1.73-.45,3.32-1.41,5.23-2.25,.32,.88,.71,1.46,.71,2.04-.06,12.15-.23,24.31-.21,36.46,0,3.17-1.38,4.87-4.18,5.97-4.94,1.93-9.81,4.02-14.71,6.04Z"/>
      <path class="cls-1" d="M666.21,219.38l2.21-.32c.3-10.94,.79-21.88,.84-32.81,.07-15.29-.22-30.58-.29-45.86-.04-9.16,0-9.16,9.03-12.88v171.57c-.6,.11-1.2,.21-1.8,.32-2.52-36.95-15.75-70.77-28.09-104.84l-1.93,.28c-.29,4.9-.81,9.79-.83,14.69-.1,19.94-.12,39.88,0,59.82,.04,6.68-.18,13.14-3.38,19.33-1.87,3.61-2.65,7.79-4.96,11.63V133.81c.54-.09,.4-.06,.93-.15,9.43,28.57,18.85,57.15,28.28,85.72Z"/>
      <path class="cls-1" d="M925,301.19c-3.49-37.09-17.56-71.31-28.88-106.27-.17-.52-1.71-.6-3.41-1.15,0,2.27,0,4.01,0,5.74,.04,25.67,.15,51.33,.02,77-.01,2.78-1.27,5.61-2.21,8.32-1.69,4.87-3.59,9.68-6.52,14.38V133.88c.7-.11,.51-.08,1.21-.19,9.62,29.3,19.23,58.59,28.85,87.89l1.92-.35c.13-1.86,.36-3.72,.37-5.58,.09-25.5,.15-51,.21-76.5q.02-7.96,8.44-11.39v173.44Z"/>
      <path class="cls-1" d="M420,157.93l-1.54,.31c-1.72-4.13-3.69-8.19-5.13-12.41-1.62-4.75-4.84-7.15-9.76-7.23-6.09-.11-12.2-.07-18.28,.26-.99,.05-2.67,1.95-2.69,3.02-.24,10.49-.13,20.98-.28,31.47-.04,2.97,1.69,3.13,3.92,3.12,7.78-.04,15.56-.01,23.76-.01v29.53c-.76,.2-.66,.17-1.43,.37-1.47-2.62-3.23-5.13-4.28-7.9-4.33-11.44-4.28-11.51-16.95-11.33-1.47,.02-2.95,.2-5.09,.36,0,6.93,0,13.55,0,20.17,0,8.99-.07,17.99-.02,26.98,.1,18.93,10.38,32.27,28.86,37.35,5.33,1.46,6.23,6.02,8.36,10.43-1.13,.15-1.89,.41-2.6,.32-24.69-3.22-46.48-21.63-46.31-49.1,.21-33.63-.22-67.27-.35-100.91,0-1.46,.17-2.93,.29-4.74h49.52v29.94Z"/>
      <path class="cls-1" d="M346.8,138.51c-6.3,0-11.61,.04-16.92,0-5.72-.05-8.66,3.16-10.45,8.23-1.34,3.8-3.19,7.42-4.83,11.12l-1.59-.34v-29.53h48.64c-11.5,47.66-22.95,95.09-34.58,143.24,7.31,0,13.76,.14,20.19-.05,4.05-.12,6.58-2.32,7.89-6.37,1.4-4.34,3.44-8.46,5.21-12.68l1.49,.3c0,9.18,.06,18.35-.13,27.52-.01,.64-1.87,1.76-2.88,1.77-14.97,.11-29.93,.08-46.02,.08,11.35-47.86,22.57-95.16,33.99-143.28Z"/>
      <path class="cls-1" d="M612.54,275.3c4.64-8.33,8.29-16.41,8.28-25.77-.06-37.5,.05-75-.16-112.49-.03-5.73,3.55-7.2,8.15-9.32,.11,2.25,.27,3.99,.27,5.72-.13,38.33-.27,76.66-.44,114.99-.07,15.86-5.3,27.82-17.83,39.86-3.52-4.39-7.4-8.45-10.36-13.1-5.77-9.09-8.14-19.36-8.18-30.02-.13-38.16-.06-76.33-.05-114.5,0-1.11,.14-2.22,.23-3.43,7.61,3.11,9.24,5.4,9.23,12.58-.05,35.33-.17,70.66-.07,105.99,.02,5.46,.66,10.98,1.68,16.35,1.02,5.33,3.64,9.96,9.24,13.14Z"/>
      <path class="cls-1" d="M702,281.99v-27.25c1.12-.11,.72-.07,1.85-.18,.54,2.75,1.09,5.49,1.61,8.25,1.26,6.71,3.11,8.52,9.88,8.88,4.6,.24,9.23,.05,14.41,.05,0-2.88,0-5.02,0-7.16-.05-19.03-.15-38.06-.15-57.09,0-10.54-3.3-19.89-10.94-27.1-14.94-14.1-18.2-31.98-17.56-51.3,.02-.63,.24-1.25,.41-2.1h37.5v30.61c-.51,.1-.4,.08-.9,.17-1.42-3.55-3.02-7.04-4.2-10.66-3.01-9.28-3.1-9.43-12.89-9.48-3.3-.02-6.6,0-10.12,0-.67,12.21,1.77,22.6,10.25,30.86,11.77,11.48,17.16,25.58,17.64,41.78,.11,3.84,.27,7.67,.26,11.51-.04,18.2-.12,36.39-.19,54.59,0,1.79,0,3.57,0,5.62h-36.84Z"/>
      <path class="cls-1" d="M549,297.67V126.99h36.65c5.65,19.41-6.16,48.66-23.85,58.31-3.73,2.04-4.63,4.31-4.61,8.18,.13,28.31,.44,56.62-.23,84.92-.16,6.63-3.85,13.17-5.91,19.76-.68-.16-1.36-.32-2.04-.48Zm9-159.68v35.9c11.71-3.48,21.42-22.11,18.86-35.9h-18.86Z"/>
      <path class="cls-1" d="M847.79,186.72c0,19.21-.82,37.89,.28,56.47,.79,13.36,7.81,24,21.19,29.37,4.77,1.91,5,6.08,6.14,11.71-5.64-2.36-10.58-3.69-14.68-6.29-13.64-8.64-21.11-21.35-21.3-37.18-.44-36.66-.18-73.32-.19-109.98,0-1.14,.2-2.28,.35-3.83h36.43v28.7c-.6,.11-.46,.08-1.06,.19-.99-2.65-2.12-5.26-2.92-7.97-2.94-10.02-3.58-10.56-14.4-10.4-3.04,.04-6.08,.26-9.62,.41v37.79c5.39,0,10.61,.19,15.8-.07,3.64-.18,4.7,1.18,4.59,4.61-.21,6.76-.06,13.53-.06,20.3l-1.86,.49c-1.1-2.39-2.91-4.71-3.15-7.18-.57-5.81-3.66-7.67-9.11-7.17-1.98,.18-3.99,.03-6.42,.03Z"/>
      <path class="cls-1" d="M947,136.61c-5.82,2.23-9.89,3.65-9.87,9.84,0,3.27-1.75,6.55-2.72,9.82-.47-.07-.94-.14-1.41-.21v-29.06h37v30.22c-5.44-6.5-2.34-17.69-13.37-20.61-.12,2.34-.3,4.23-.31,6.12-.17,44.29-.01,88.59-.75,132.87-.13,7.88-3.94,15.69-6.04,23.53-.84-.13-1.69-.25-2.53-.38V136.61Z"/>
      <path class="cls-1" d="M177.94,301.17c-.08-1.13-.23-2.25-.23-3.38-.16-53.82-.34-107.63-.3-161.45,0-1.99,1.81-4.54,3.52-5.84,2.01-1.53,4.84-1.98,7.87-3.1,.15,1.83,.37,3.22,.37,4.61,.05,48.82,.07,97.64,.16,146.46,0,2.74-.4,4.69-3.21,6.01-1.17,.55-1.86,2.51-2.39,3.96-1.56,4.31-2.92,8.7-4.36,13.05-.48-.11-.95-.21-1.43-.32Z"/>
      <path class="cls-1" d="M685.44,301.77c0-1.73,0-3.47,0-5.2-.14-52.16-.14-104.32-.59-156.47-.06-6.72,1.78-10.77,8.71-12.62,.11,1.29,.33,2.66,.33,4.03,0,48.99,.3,97.99-.35,146.97-.1,7.85-4.46,15.64-6.85,23.46-.42-.06-.84-.11-1.26-.17Z"/>
      <path class="cls-1" d="M746,301.28V127.86c7.54,1.76,8.4,2.89,8.38,10.28-.03,12.32,0,24.64,0,37.85h14.99c.21,.8,.19,.71,.4,1.51-3.65,2.11-7.16,4.52-10.99,6.24-3.43,1.55-4.42,3.79-4.41,7.38,.03,27.5-.52,55,.03,82.49,.21,10.39-5.73,18.42-6.97,28.04-.47-.12-.95-.24-1.42-.36Z"/>
      <path class="cls-1" d="M783,301.38c-3.29-9.72-8.24-18.62-8.13-29.45,.44-44.46,.25-88.92-.12-133.38-.05-6.35,2.18-9.53,8.25-11.21v174.04Z"/>
    </g>
  </g>
</svg>